<?xml version="1.0" encoding="UTF-8" standalone="no"?>
<!DOCTYPE svg PUBLIC "-//W3C//DTD SVG 1.1//EN"
 "http://www.w3.org/Graphics/SVG/1.1/DTD/svg11.dtd">
<!-- Generated by graphviz version 12.1.2 (20240928.0832)
 -->
<!-- Title: public.rooms Pages: 1 -->
<svg width="2311pt" height="848pt"
 viewBox="0.00 0.00 2310.76 848.40" xmlns="http://www.w3.org/2000/svg" xmlns:xlink="http://www.w3.org/1999/xlink">
<g id="graph0" class="graph" transform="scale(1 1) rotate(0) translate(4 844.4)">
<title>public.rooms</title>
<polygon fill="white" stroke="none" points="-4,4 -4,-844.4 2306.76,-844.4 2306.76,4 -4,4"/>
<!-- public.rooms -->
<g id="node1" class="node">
<title>public.rooms</title>
<polygon fill="#efefef" stroke="none" points="1020.75,-231 1020.75,-266.6 1270.52,-266.6 1270.52,-231 1020.75,-231"/>
<polygon fill="none" stroke="black" points="1020.75,-231 1020.75,-266.6 1270.52,-266.6 1270.52,-231 1020.75,-231"/>
<text text-anchor="start" x="1036.14" y="-244.4" font-family="Arial Bold" font-size="18.00">public.rooms</text>
<text text-anchor="start" x="1130.63" y="-244.4" font-family="Arial" font-size="14.00">    </text>
<text text-anchor="start" x="1161.75" y="-244.4" font-family="Arial" font-size="14.00" fill="#666666">[BASE TABLE]</text>
<polygon fill="none" stroke="black" points="1020.75,-200.2 1020.75,-231 1270.52,-231 1270.52,-200.2 1020.75,-200.2"/>
<text text-anchor="start" x="1027.75" y="-212.4" font-family="Arial" font-size="14.00">id </text>
<text text-anchor="start" x="1042.53" y="-212.4" font-family="Arial" font-size="14.00" fill="#666666">[text]</text>
<polygon fill="none" stroke="black" points="1020.75,-169.4 1020.75,-200.2 1270.52,-200.2 1270.52,-169.4 1020.75,-169.4"/>
<text text-anchor="start" x="1027.75" y="-181.6" font-family="Arial" font-size="14.00">name </text>
<text text-anchor="start" x="1066.66" y="-181.6" font-family="Arial" font-size="14.00" fill="#666666">[text]</text>
<polygon fill="none" stroke="black" points="1020.75,-138.6 1020.75,-169.4 1270.52,-169.4 1270.52,-138.6 1020.75,-138.6"/>
<text text-anchor="start" x="1027.75" y="-150.8" font-family="Arial" font-size="14.00">mode </text>
<text text-anchor="start" x="1066.66" y="-150.8" font-family="Arial" font-size="14.00" fill="#666666">[text]</text>
<polygon fill="none" stroke="black" points="1020.75,-107.8 1020.75,-138.6 1270.52,-138.6 1270.52,-107.8 1020.75,-107.8"/>
<text text-anchor="start" x="1027.75" y="-120" font-family="Arial" font-size="14.00">host_id </text>
<text text-anchor="start" x="1076.78" y="-120" font-family="Arial" font-size="14.00" fill="#666666">[text]</text>
<polygon fill="none" stroke="black" points="1020.75,-77 1020.75,-107.8 1270.52,-107.8 1270.52,-77 1020.75,-77"/>
<text text-anchor="start" x="1027.75" y="-89.2" font-family="Arial" font-size="14.00">admin_password_hash </text>
<text text-anchor="start" x="1175.61" y="-89.2" font-family="Arial" font-size="14.00" fill="#666666">[text]</text>
<polygon fill="none" stroke="black" points="1020.75,-46.2 1020.75,-77 1270.52,-77 1270.52,-46.2 1020.75,-46.2"/>
<text text-anchor="start" x="1027.75" y="-58.4" font-family="Arial" font-size="14.00">created_at </text>
<text text-anchor="start" x="1097.79" y="-58.4" font-family="Arial" font-size="14.00" fill="#666666">[timestamp with time zone]</text>
<polygon fill="none" stroke="black" stroke-width="3" points="1019.25,-44.7 1019.25,-268.1 1272.02,-268.1 1272.02,-44.7 1019.25,-44.7"/>
</g>
<!-- public.room_settings -->
<g id="node2" class="node">
<title>public.room_settings</title>
<polygon fill="#efefef" stroke="none" points="63.64,-730.8 63.64,-766.4 353.62,-766.4 353.62,-730.8 63.64,-730.8"/>
<polygon fill="none" stroke="black" points="63.64,-730.8 63.64,-766.4 353.62,-766.4 353.62,-730.8 63.64,-730.8"/>
<text text-anchor="start" x="70.64" y="-744.2" font-family="Arial Bold" font-size="18.00">public.room_settings</text>
<text text-anchor="start" x="222.13" y="-744.2" font-family="Arial" font-size="14.00">    </text>
<text text-anchor="start" x="253.25" y="-744.2" font-family="Arial" font-size="14.00" fill="#666666">[BASE TABLE]</text>
<polygon fill="none" stroke="black" points="63.64,-700 63.64,-730.8 353.62,-730.8 353.62,-700 63.64,-700"/>
<text text-anchor="start" x="70.64" y="-712.2" font-family="Arial" font-size="14.00">room_id </text>
<text text-anchor="start" x="125.11" y="-712.2" font-family="Arial" font-size="14.00" fill="#666666">[text]</text>
<polygon fill="none" stroke="black" points="63.64,-669.2 63.64,-700 353.62,-700 353.62,-669.2 63.64,-669.2"/>
<text text-anchor="start" x="70.64" y="-681.4" font-family="Arial" font-size="14.00">skip_allowed </text>
<text text-anchor="start" x="154.69" y="-681.4" font-family="Arial" font-size="14.00" fill="#666666">[integer]</text>
<polygon fill="none" stroke="black" points="63.64,-638.4 63.64,-669.2 353.62,-669.2 353.62,-638.4 63.64,-638.4"/>
<text text-anchor="start" x="70.64" y="-650.6" font-family="Arial" font-size="14.00">democratic_skip </text>
<text text-anchor="start" x="175.68" y="-650.6" font-family="Arial" font-size="14.00" fill="#666666">[integer]</text>
<polygon fill="none" stroke="black" points="63.64,-607.6 63.64,-638.4 353.62,-638.4 353.62,-607.6 63.64,-607.6"/>
<text text-anchor="start" x="70.64" y="-619.8" font-family="Arial" font-size="14.00">skip_vote_threshold </text>
<text text-anchor="start" x="199.06" y="-619.8" font-family="Arial" font-size="14.00" fill="#666666">[real]</text>
<polygon fill="none" stroke="black" points="63.64,-576.8 63.64,-607.6 353.62,-607.6 353.62,-576.8 63.64,-576.8"/>
<text text-anchor="start" x="70.64" y="-589" font-family="Arial" font-size="14.00">max_continuous_adds </text>
<text text-anchor="start" x="214.63" y="-589" font-family="Arial" font-size="14.00" fill="#666666">[integer]</text>
<polygon fill="none" stroke="black" points="63.64,-546 63.64,-576.8 353.62,-576.8 353.62,-546 63.64,-546"/>
<text text-anchor="start" x="70.64" y="-558.2" font-family="Arial" font-size="14.00">remove_on_play </text>
<text text-anchor="start" x="178.04" y="-558.2" font-family="Arial" font-size="14.00" fill="#666666">[integer]</text>
<polygon fill="none" stroke="black" points="63.64,-515.2 63.64,-546 353.62,-546 353.62,-515.2 63.64,-515.2"/>
<text text-anchor="start" x="70.64" y="-527.4" font-family="Arial" font-size="14.00">loop_queue </text>
<text text-anchor="start" x="147.72" y="-527.4" font-family="Arial" font-size="14.00" fill="#666666">[integer]</text>
<polygon fill="none" stroke="black" points="63.64,-484.4 63.64,-515.2 353.62,-515.2 353.62,-484.4 63.64,-484.4"/>
<text text-anchor="start" x="70.64" y="-496.6" font-family="Arial" font-size="14.00">allow_duplicates </text>
<text text-anchor="start" x="177.26" y="-496.6" font-family="Arial" font-size="14.00" fill="#666666">[integer]</text>
<polygon fill="none" stroke="black" points="63.64,-453.6 63.64,-484.4 353.62,-484.4 353.62,-453.6 63.64,-453.6"/>
<text text-anchor="start" x="70.64" y="-465.8" font-family="Arial" font-size="14.00">enabled_sources </text>
<text text-anchor="start" x="181.17" y="-465.8" font-family="Arial" font-size="14.00" fill="#666666">[text]</text>
<polygon fill="none" stroke="black" points="63.64,-422.8 63.64,-453.6 353.62,-453.6 353.62,-422.8 63.64,-422.8"/>
<text text-anchor="start" x="70.64" y="-435" font-family="Arial" font-size="14.00">only_admin_add_songs </text>
<text text-anchor="start" x="222.42" y="-435" font-family="Arial" font-size="14.00" fill="#666666">[integer]</text>
</g>
<!-- public.room_settings&#45;&gt;public.rooms -->
<g id="edge1" class="edge">
<title>public.room_settings:room_id&#45;&gt;public.rooms:id</title>
<path fill="none" stroke="black" d="M364.71,-713.6C429.33,-688.38 352.21,-406.4 405.63,-348.8 500.59,-246.41 880.1,-215.6 1019.75,-215.6"/>
<polygon fill="black" stroke="black" points="364.79,-713.58 354.16,-710.91 359.54,-714.52 355.28,-715.28 355.28,-715.28 355.28,-715.28 359.54,-714.52 355.74,-719.77 364.79,-713.58"/>
<text text-anchor="start" x="7" y="-725.4" font-family="Arial" font-size="10.00">FOREIGN KEY (room_id) REFERENCES rooms(id) ON DELETE CASCADE</text>
</g>
<!-- public.songs -->
<g id="node3" class="node">
<title>public.songs</title>
<polygon fill="#efefef" stroke="none" points="457.63,-761.6 457.63,-797.2 699.63,-797.2 699.63,-761.6 457.63,-761.6"/>
<polygon fill="none" stroke="black" points="457.63,-761.6 457.63,-797.2 699.63,-797.2 699.63,-761.6 457.63,-761.6"/>
<text text-anchor="start" x="471.14" y="-775" font-family="Arial Bold" font-size="18.00">public.songs</text>
<text text-anchor="start" x="561.64" y="-775" font-family="Arial" font-size="14.00">    </text>
<text text-anchor="start" x="592.75" y="-775" font-family="Arial" font-size="14.00" fill="#666666">[BASE TABLE]</text>
<polygon fill="none" stroke="black" points="457.63,-730.8 457.63,-761.6 699.63,-761.6 699.63,-730.8 457.63,-730.8"/>
<text text-anchor="start" x="464.63" y="-743" font-family="Arial" font-size="14.00">id </text>
<text text-anchor="start" x="479.41" y="-743" font-family="Arial" font-size="14.00" fill="#666666">[text]</text>
<polygon fill="none" stroke="black" points="457.63,-700 457.63,-730.8 699.63,-730.8 699.63,-700 457.63,-700"/>
<text text-anchor="start" x="464.63" y="-712.2" font-family="Arial" font-size="14.00">room_id </text>
<text text-anchor="start" x="519.1" y="-712.2" font-family="Arial" font-size="14.00" fill="#666666">[text]</text>
<polygon fill="none" stroke="black" points="457.63,-669.2 457.63,-700 699.63,-700 699.63,-669.2 457.63,-669.2"/>
<text text-anchor="start" x="464.63" y="-681.4" font-family="Arial" font-size="14.00">source_type </text>
<text text-anchor="start" x="544.79" y="-681.4" font-family="Arial" font-size="14.00" fill="#666666">[text]</text>
<polygon fill="none" stroke="black" points="457.63,-638.4 457.63,-669.2 699.63,-669.2 699.63,-638.4 457.63,-638.4"/>
<text text-anchor="start" x="464.63" y="-650.6" font-family="Arial" font-size="14.00">source_id </text>
<text text-anchor="start" x="529.22" y="-650.6" font-family="Arial" font-size="14.00" fill="#666666">[text]</text>
<polygon fill="none" stroke="black" points="457.63,-607.6 457.63,-638.4 699.63,-638.4 699.63,-607.6 457.63,-607.6"/>
<text text-anchor="start" x="464.63" y="-619.8" font-family="Arial" font-size="14.00">title </text>
<text text-anchor="start" x="490.3" y="-619.8" font-family="Arial" font-size="14.00" fill="#666666">[text]</text>
<polygon fill="none" stroke="black" points="457.63,-576.8 457.63,-607.6 699.63,-607.6 699.63,-576.8 457.63,-576.8"/>
<text text-anchor="start" x="464.63" y="-589" font-family="Arial" font-size="14.00">artist </text>
<text text-anchor="start" x="498.86" y="-589" font-family="Arial" font-size="14.00" fill="#666666">[text]</text>
<polygon fill="none" stroke="black" points="457.63,-546 457.63,-576.8 699.63,-576.8 699.63,-546 457.63,-546"/>
<text text-anchor="start" x="464.63" y="-558.2" font-family="Arial" font-size="14.00">thumbnail_url </text>
<text text-anchor="start" x="552.57" y="-558.2" font-family="Arial" font-size="14.00" fill="#666666">[text]</text>
<polygon fill="none" stroke="black" points="457.63,-515.2 457.63,-546 699.63,-546 699.63,-515.2 457.63,-515.2"/>
<text text-anchor="start" x="464.63" y="-527.4" font-family="Arial" font-size="14.00">duration </text>
<text text-anchor="start" x="519.11" y="-527.4" font-family="Arial" font-size="14.00" fill="#666666">[integer]</text>
<polygon fill="none" stroke="black" points="457.63,-484.4 457.63,-515.2 699.63,-515.2 699.63,-484.4 457.63,-484.4"/>
<text text-anchor="start" x="464.63" y="-496.6" font-family="Arial" font-size="14.00">added_by </text>
<text text-anchor="start" x="530.02" y="-496.6" font-family="Arial" font-size="14.00" fill="#666666">[text]</text>
<polygon fill="none" stroke="black" points="457.63,-453.6 457.63,-484.4 699.63,-484.4 699.63,-453.6 457.63,-453.6"/>
<text text-anchor="start" x="464.63" y="-465.8" font-family="Arial" font-size="14.00">added_by_nickname </text>
<text text-anchor="start" x="597.72" y="-465.8" font-family="Arial" font-size="14.00" fill="#666666">[text]</text>
<polygon fill="none" stroke="black" points="457.63,-422.8 457.63,-453.6 699.63,-453.6 699.63,-422.8 457.63,-422.8"/>
<text text-anchor="start" x="464.63" y="-435" font-family="Arial" font-size="14.00">added_at </text>
<text text-anchor="start" x="526.91" y="-435" font-family="Arial" font-size="14.00" fill="#666666">[timestamp with time zone]</text>
<polygon fill="none" stroke="black" points="457.63,-392 457.63,-422.8 699.63,-422.8 699.63,-392 457.63,-392"/>
<text text-anchor="start" x="464.63" y="-404.2" font-family="Arial" font-size="14.00">position </text>
<text text-anchor="start" x="516.77" y="-404.2" font-family="Arial" font-size="14.00" fill="#666666">[integer]</text>
</g>
<!-- public.songs&#45;&gt;public.rooms -->
<g id="edge2" class="edge">
<title>public.songs:room_id&#45;&gt;public.rooms:id</title>
<path fill="none" stroke="black" d="M710.77,-713.63C776.02,-688.93 705.73,-412.55 751.63,-348.8 829.37,-240.82 886.69,-215.6 1019.75,-215.6"/>
<polygon fill="black" stroke="black" points="710.82,-713.62 700.19,-710.91 705.56,-714.54 701.29,-715.29 701.29,-715.29 701.29,-715.29 705.56,-714.54 701.74,-719.78 710.82,-713.62"/>
<text text-anchor="start" x="707.63" y="-725.4" font-family="Arial" font-size="10.00">FOREIGN KEY (room_id) REFERENCES rooms(id) ON DELETE CASCADE</text>
</g>
<!-- public.playback_state -->
<g id="node4" class="node">
<title>public.playback_state</title>
<polygon fill="#efefef" stroke="none" points="804.16,-653.8 804.16,-689.4 1099.1,-689.4 1099.1,-653.8 804.16,-653.8"/>
<polygon fill="none" stroke="black" points="804.16,-653.8 804.16,-689.4 1099.1,-689.4 1099.1,-653.8 804.16,-653.8"/>
<text text-anchor="start" x="811.16" y="-667.2" font-family="Arial Bold" font-size="18.00">public.playback_state</text>
<text text-anchor="start" x="967.61" y="-667.2" font-family="Arial" font-size="14.00">    </text>
<text text-anchor="start" x="998.73" y="-667.2" font-family="Arial" font-size="14.00" fill="#666666">[BASE TABLE]</text>
<polygon fill="none" stroke="black" points="804.16,-623 804.16,-653.8 1099.1,-653.8 1099.1,-623 804.16,-623"/>
<text text-anchor="start" x="811.16" y="-635.2" font-family="Arial" font-size="14.00">room_id </text>
<text text-anchor="start" x="865.63" y="-635.2" font-family="Arial" font-size="14.00" fill="#666666">[text]</text>
<polygon fill="none" stroke="black" points="804.16,-592.2 804.16,-623 1099.1,-623 1099.1,-592.2 804.16,-592.2"/>
<text text-anchor="start" x="811.16" y="-604.4" font-family="Arial" font-size="14.00">current_song_id </text>
<text text-anchor="start" x="915.45" y="-604.4" font-family="Arial" font-size="14.00" fill="#666666">[text]</text>
<polygon fill="none" stroke="black" points="804.16,-561.4 804.16,-592.2 1099.1,-592.2 1099.1,-561.4 804.16,-561.4"/>
<text text-anchor="start" x="811.16" y="-573.6" font-family="Arial" font-size="14.00">is_playing </text>
<text text-anchor="start" x="877.32" y="-573.6" font-family="Arial" font-size="14.00" fill="#666666">[integer]</text>
<polygon fill="none" stroke="black" points="804.16,-530.6 804.16,-561.4 1099.1,-561.4 1099.1,-530.6 804.16,-530.6"/>
<text text-anchor="start" x="811.16" y="-542.8" font-family="Arial" font-size="14.00">position_ms </text>
<text text-anchor="start" x="889.76" y="-542.8" font-family="Arial" font-size="14.00" fill="#666666">[integer]</text>
<polygon fill="none" stroke="black" points="804.16,-499.8 804.16,-530.6 1099.1,-530.6 1099.1,-499.8 804.16,-499.8"/>
<text text-anchor="start" x="811.16" y="-512" font-family="Arial" font-size="14.00">updated_at </text>
<text text-anchor="start" x="885.12" y="-512" font-family="Arial" font-size="14.00" fill="#666666">[timestamp with time zone]</text>
</g>
<!-- public.playback_state&#45;&gt;public.rooms -->
<g id="edge3" class="edge">
<title>public.playback_state:room_id&#45;&gt;public.rooms:id</title>
<path fill="none" stroke="black" d="M1110.14,-637.78C1175.45,-629.15 1118.36,-531.33 1099.1,-456.6 1080.94,-386.12 1039.08,-383.24 1020.75,-312.8 1009.87,-270.99 976.54,-215.6 1019.75,-215.6"/>
<polygon fill="black" stroke="black" points="1110.41,-637.77 1100.16,-633.89 1105.09,-638.09 1100.77,-638.36 1100.77,-638.36 1100.77,-638.36 1105.09,-638.09 1100.71,-642.87 1110.41,-637.77"/>
<text text-anchor="start" x="1107.1" y="-648.4" font-family="Arial" font-size="10.00">FOREIGN KEY (room_id) REFERENCES rooms(id) ON DELETE CASCADE</text>
</g>
<!-- public.room_users -->
<g id="node5" class="node">
<title>public.room_users</title>
<polygon fill="#efefef" stroke="none" points="1203.65,-715.4 1203.65,-751 1475.62,-751 1475.62,-715.4 1203.65,-715.4"/>
<polygon fill="none" stroke="black" points="1203.65,-715.4 1203.65,-751 1475.62,-751 1475.62,-715.4 1203.65,-715.4"/>
<text text-anchor="start" x="1210.65" y="-728.8" font-family="Arial Bold" font-size="18.00">public.room_users</text>
<text text-anchor="start" x="1344.13" y="-728.8" font-family="Arial" font-size="14.00">    </text>
<text text-anchor="start" x="1375.24" y="-728.8" font-family="Arial" font-size="14.00" fill="#666666">[BASE TABLE]</text>
<polygon fill="none" stroke="black" points="1203.65,-684.6 1203.65,-715.4 1475.62,-715.4 1475.62,-684.6 1203.65,-684.6"/>
<text text-anchor="start" x="1210.65" y="-696.8" font-family="Arial" font-size="14.00">id </text>
<text text-anchor="start" x="1225.43" y="-696.8" font-family="Arial" font-size="14.00" fill="#666666">[text]</text>
<polygon fill="none" stroke="black" points="1203.65,-653.8 1203.65,-684.6 1475.62,-684.6 1475.62,-653.8 1203.65,-653.8"/>
<text text-anchor="start" x="1210.65" y="-666" font-family="Arial" font-size="14.00">room_id </text>
<text text-anchor="start" x="1265.12" y="-666" font-family="Arial" font-size="14.00" fill="#666666">[text]</text>
<polygon fill="none" stroke="black" points="1203.65,-623 1203.65,-653.8 1475.62,-653.8 1475.62,-623 1203.65,-623"/>
<text text-anchor="start" x="1210.65" y="-635.2" font-family="Arial" font-size="14.00">nickname </text>
<text text-anchor="start" x="1274.45" y="-635.2" font-family="Arial" font-size="14.00" fill="#666666">[text]</text>
<polygon fill="none" stroke="black" points="1203.65,-592.2 1203.65,-623 1475.62,-623 1475.62,-592.2 1203.65,-592.2"/>
<text text-anchor="start" x="1210.65" y="-604.4" font-family="Arial" font-size="14.00">is_admin </text>
<text text-anchor="start" x="1270.56" y="-604.4" font-family="Arial" font-size="14.00" fill="#666666">[integer]</text>
<polygon fill="none" stroke="black" points="1203.65,-561.4 1203.65,-592.2 1475.62,-592.2 1475.62,-561.4 1203.65,-561.4"/>
<text text-anchor="start" x="1210.65" y="-573.6" font-family="Arial" font-size="14.00">is_active_listener </text>
<text text-anchor="start" x="1321.92" y="-573.6" font-family="Arial" font-size="14.00" fill="#666666">[integer]</text>
<polygon fill="none" stroke="black" points="1203.65,-530.6 1203.65,-561.4 1475.62,-561.4 1475.62,-530.6 1203.65,-530.6"/>
<text text-anchor="start" x="1210.65" y="-542.8" font-family="Arial" font-size="14.00">is_cast_receiver </text>
<text text-anchor="start" x="1315.69" y="-542.8" font-family="Arial" font-size="14.00" fill="#666666">[integer]</text>
<polygon fill="none" stroke="black" points="1203.65,-499.8 1203.65,-530.6 1475.62,-530.6 1475.62,-499.8 1203.65,-499.8"/>
<text text-anchor="start" x="1210.65" y="-512" font-family="Arial" font-size="14.00">cast_owner_id </text>
<text text-anchor="start" x="1304.81" y="-512" font-family="Arial" font-size="14.00" fill="#666666">[text]</text>
<polygon fill="none" stroke="black" points="1203.65,-469 1203.65,-499.8 1475.62,-499.8 1475.62,-469 1203.65,-469"/>
<text text-anchor="start" x="1210.65" y="-481.2" font-family="Arial" font-size="14.00">joined_at </text>
<text text-anchor="start" x="1271.36" y="-481.2" font-family="Arial" font-size="14.00" fill="#666666">[timestamp with time zone]</text>
<polygon fill="none" stroke="black" points="1203.65,-438.2 1203.65,-469 1475.62,-469 1475.62,-438.2 1203.65,-438.2"/>
<text text-anchor="start" x="1210.65" y="-450.4" font-family="Arial" font-size="14.00">last_seen_at </text>
<text text-anchor="start" x="1293.93" y="-450.4" font-family="Arial" font-size="14.00" fill="#666666">[timestamp with time zone]</text>
</g>
<!-- public.room_users&#45;&gt;public.rooms -->
<g id="edge4" class="edge">
<title>public.room_users:room_id&#45;&gt;public.rooms:id</title>
<path fill="none" stroke="black" d="M1192.68,-666.9C1146.65,-643.53 1184.38,-448.9 1203.65,-395 1219.5,-350.65 1254.52,-357.09 1270.52,-312.8 1285.19,-272.17 1314.72,-215.6 1271.52,-215.6"/>
<polygon fill="black" stroke="black" points="1192.58,-666.88 1201.31,-673.51 1197.78,-668.08 1202,-669.05 1202,-669.05 1202,-669.05 1197.78,-668.08 1203.33,-664.74 1192.58,-666.88"/>
<text text-anchor="start" x="855.03" y="-679.2" font-family="Arial" font-size="10.00">FOREIGN KEY (room_id) REFERENCES rooms(id) ON DELETE CASCADE</text>
</g>
<!-- public.skip_votes -->
<g id="node6" class="node">
<title>public.skip_votes</title>
<polygon fill="#efefef" stroke="none" points="1580.14,-638.4 1580.14,-674 1845.12,-674 1845.12,-638.4 1580.14,-638.4"/>
<polygon fill="none" stroke="black" points="1580.14,-638.4 1580.14,-674 1845.12,-674 1845.12,-638.4 1580.14,-638.4"/>
<text text-anchor="start" x="1587.14" y="-651.8" font-family="Arial Bold" font-size="18.00">public.skip_votes</text>
<text text-anchor="start" x="1713.63" y="-651.8" font-family="Arial" font-size="14.00">    </text>
<text text-anchor="start" x="1744.75" y="-651.8" font-family="Arial" font-size="14.00" fill="#666666">[BASE TABLE]</text>
<polygon fill="none" stroke="black" points="1580.14,-607.6 1580.14,-638.4 1845.12,-638.4 1845.12,-607.6 1580.14,-607.6"/>
<text text-anchor="start" x="1587.14" y="-619.8" font-family="Arial" font-size="14.00">room_id </text>
<text text-anchor="start" x="1641.61" y="-619.8" font-family="Arial" font-size="14.00" fill="#666666">[text]</text>
<polygon fill="none" stroke="black" points="1580.14,-576.8 1580.14,-607.6 1845.12,-607.6 1845.12,-576.8 1580.14,-576.8"/>
<text text-anchor="start" x="1587.14" y="-589" font-family="Arial" font-size="14.00">song_id </text>
<text text-anchor="start" x="1640.07" y="-589" font-family="Arial" font-size="14.00" fill="#666666">[text]</text>
<polygon fill="none" stroke="black" points="1580.14,-546 1580.14,-576.8 1845.12,-576.8 1845.12,-546 1580.14,-546"/>
<text text-anchor="start" x="1587.14" y="-558.2" font-family="Arial" font-size="14.00">user_id </text>
<text text-anchor="start" x="1636.95" y="-558.2" font-family="Arial" font-size="14.00" fill="#666666">[text]</text>
<polygon fill="none" stroke="black" points="1580.14,-515.2 1580.14,-546 1845.12,-546 1845.12,-515.2 1580.14,-515.2"/>
<text text-anchor="start" x="1587.14" y="-527.4" font-family="Arial" font-size="14.00">created_at </text>
<text text-anchor="start" x="1657.19" y="-527.4" font-family="Arial" font-size="14.00" fill="#666666">[timestamp with time zone]</text>
</g>
<!-- public.skip_votes&#45;&gt;public.rooms -->
<g id="edge5" class="edge">
<title>public.skip_votes:room_id&#45;&gt;public.rooms:id</title>
<path fill="none" stroke="black" d="M1569.04,-620.62C1522.58,-596.47 1562.34,-395.57 1527.63,-348.8 1451.17,-245.77 1399.82,-215.6 1271.52,-215.6"/>
<polygon fill="black" stroke="black" points="1569.08,-620.63 1577.78,-627.3 1574.27,-621.85 1578.49,-622.85 1578.49,-622.85 1578.49,-622.85 1574.27,-621.85 1579.85,-618.54 1569.08,-620.63"/>
<text text-anchor="start" x="1586.14" y="-633" font-family="Arial" font-size="10.00">FOREIGN KEY (room_id) REFERENCES rooms(id) ON DELETE CASCADE</text>
</g>
<!-- public.song_votes -->
<g id="node7" class="node">
<title>public.song_votes</title>
<polygon fill="#efefef" stroke="none" points="1949.14,-638.4 1949.14,-674 2218.12,-674 2218.12,-638.4 1949.14,-638.4"/>
<polygon fill="none" stroke="black" points="1949.14,-638.4 1949.14,-674 2218.12,-674 2218.12,-638.4 1949.14,-638.4"/>
<text text-anchor="start" x="1956.14" y="-651.8" font-family="Arial Bold" font-size="18.00">public.song_votes</text>
<text text-anchor="start" x="2086.63" y="-651.8" font-family="Arial" font-size="14.00">    </text>
<text text-anchor="start" x="2117.75" y="-651.8" font-family="Arial" font-size="14.00" fill="#666666">[BASE TABLE]</text>
<polygon fill="none" stroke="black" points="1949.14,-607.6 1949.14,-638.4 2218.12,-638.4 2218.12,-607.6 1949.14,-607.6"/>
<text text-anchor="start" x="1956.14" y="-619.8" font-family="Arial" font-size="14.00">room_id </text>
<text text-anchor="start" x="2010.61" y="-619.8" font-family="Arial" font-size="14.00" fill="#666666">[text]</text>
<polygon fill="none" stroke="black" points="1949.14,-576.8 1949.14,-607.6 2218.12,-607.6 2218.12,-576.8 1949.14,-576.8"/>
<text text-anchor="start" x="1956.14" y="-589" font-family="Arial" font-size="14.00">song_id </text>
<text text-anchor="start" x="2009.07" y="-589" font-family="Arial" font-size="14.00" fill="#666666">[text]</text>
<polygon fill="none" stroke="black" points="1949.14,-546 1949.14,-576.8 2218.12,-576.8 2218.12,-546 1949.14,-546"/>
<text text-anchor="start" x="1956.14" y="-558.2" font-family="Arial" font-size="14.00">user_id </text>
<text text-anchor="start" x="2005.95" y="-558.2" font-family="Arial" font-size="14.00" fill="#666666">[text]</text>
<polygon fill="none" stroke="black" points="1949.14,-515.2 1949.14,-546 2218.12,-546 2218.12,-515.2 1949.14,-515.2"/>
<text text-anchor="start" x="1956.14" y="-527.4" font-family="Arial" font-size="14.00">created_at </text>
<text text-anchor="start" x="2026.19" y="-527.4" font-family="Arial" font-size="14.00" fill="#666666">[timestamp with time zone]</text>
</g>
<!-- public.song_votes&#45;&gt;public.rooms -->
<g id="edge6" class="edge">
<title>public.song_votes:room_id&#45;&gt;public.rooms:id</title>
<path fill="none" stroke="black" d="M1937.97,-622.53C1833.38,-612.22 1981.51,-435.01 1897.63,-348.8 1798.44,-246.84 1413.77,-215.6 1271.52,-215.6"/>
<polygon fill="black" stroke="black" points="1937.82,-622.52 1947.6,-627.48 1943.15,-622.77 1947.47,-622.97 1947.47,-622.97 1947.47,-622.97 1943.15,-622.77 1948.01,-618.49 1937.82,-622.52"/>
<text text-anchor="start" x="1955.14" y="-633" font-family="Arial" font-size="10.00">FOREIGN KEY (room_id) REFERENCES rooms(id) ON DELETE CASCADE</text>
</g>
</g>
</svg>
