<?xml version="1.0" encoding="UTF-8" standalone="no"?>
<!DOCTYPE svg PUBLIC "-//W3C//DTD SVG 1.1//EN"
 "http://www.w3.org/Graphics/SVG/1.1/DTD/svg11.dtd">
<!-- Generated by graphviz version 12.1.2 (20240928.0832)
 -->
<!-- Title: public.room_users Pages: 1 -->
<svg width="682pt" height="756pt"
 viewBox="0.00 0.00 681.79 756.00" xmlns="http://www.w3.org/2000/svg" xmlns:xlink="http://www.w3.org/1999/xlink">
<g id="graph0" class="graph" transform="scale(1 1) rotate(0) translate(4 752)">
<title>public.room_users</title>
<polygon fill="white" stroke="none" points="-4,4 -4,-752 677.79,-752 677.79,4 -4,4"/>
<!-- public.room_users -->
<g id="node1" class="node">
<title>public.room_users</title>
<polygon fill="#efefef" stroke="none" points="46.2,-666.2 46.2,-701.8 318.17,-701.8 318.17,-666.2 46.2,-666.2"/>
<polygon fill="none" stroke="black" points="46.2,-666.2 46.2,-701.8 318.17,-701.8 318.17,-666.2 46.2,-666.2"/>
<text text-anchor="start" x="53.2" y="-679.6" font-family="Arial Bold" font-size="18.00">public.room_users</text>
<text text-anchor="start" x="186.68" y="-679.6" font-family="Arial" font-size="14.00">    </text>
<text text-anchor="start" x="217.8" y="-679.6" font-family="Arial" font-size="14.00" fill="#666666">[BASE TABLE]</text>
<polygon fill="none" stroke="black" points="46.2,-635.4 46.2,-666.2 318.17,-666.2 318.17,-635.4 46.2,-635.4"/>
<text text-anchor="start" x="53.2" y="-647.6" font-family="Arial" font-size="14.00">id </text>
<text text-anchor="start" x="67.99" y="-647.6" font-family="Arial" font-size="14.00" fill="#666666">[text]</text>
<polygon fill="none" stroke="black" points="46.2,-604.6 46.2,-635.4 318.17,-635.4 318.17,-604.6 46.2,-604.6"/>
<text text-anchor="start" x="53.2" y="-616.8" font-family="Arial" font-size="14.00">room_id </text>
<text text-anchor="start" x="107.67" y="-616.8" font-family="Arial" font-size="14.00" fill="#666666">[text]</text>
<polygon fill="none" stroke="black" points="46.2,-573.8 46.2,-604.6 318.17,-604.6 318.17,-573.8 46.2,-573.8"/>
<text text-anchor="start" x="53.2" y="-586" font-family="Arial" font-size="14.00">nickname </text>
<text text-anchor="start" x="117.01" y="-586" font-family="Arial" font-size="14.00" fill="#666666">[text]</text>
<polygon fill="none" stroke="black" points="46.2,-543 46.2,-573.8 318.17,-573.8 318.17,-543 46.2,-543"/>
<text text-anchor="start" x="53.2" y="-555.2" font-family="Arial" font-size="14.00">is_admin </text>
<text text-anchor="start" x="113.12" y="-555.2" font-family="Arial" font-size="14.00" fill="#666666">[integer]</text>
<polygon fill="none" stroke="black" points="46.2,-512.2 46.2,-543 318.17,-543 318.17,-512.2 46.2,-512.2"/>
<text text-anchor="start" x="53.2" y="-524.4" font-family="Arial" font-size="14.00">is_active_listener </text>
<text text-anchor="start" x="164.48" y="-524.4" font-family="Arial" font-size="14.00" fill="#666666">[integer]</text>
<polygon fill="none" stroke="black" points="46.2,-481.4 46.2,-512.2 318.17,-512.2 318.17,-481.4 46.2,-481.4"/>
<text text-anchor="start" x="53.2" y="-493.6" font-family="Arial" font-size="14.00">is_cast_receiver </text>
<text text-anchor="start" x="158.24" y="-493.6" font-family="Arial" font-size="14.00" fill="#666666">[integer]</text>
<polygon fill="none" stroke="black" points="46.2,-450.6 46.2,-481.4 318.17,-481.4 318.17,-450.6 46.2,-450.6"/>
<text text-anchor="start" x="53.2" y="-462.8" font-family="Arial" font-size="14.00">cast_owner_id </text>
<text text-anchor="start" x="147.37" y="-462.8" font-family="Arial" font-size="14.00" fill="#666666">[text]</text>
<polygon fill="none" stroke="black" points="46.2,-419.8 46.2,-450.6 318.17,-450.6 318.17,-419.8 46.2,-419.8"/>
<text text-anchor="start" x="53.2" y="-432" font-family="Arial" font-size="14.00">joined_at </text>
<text text-anchor="start" x="113.92" y="-432" font-family="Arial" font-size="14.00" fill="#666666">[timestamp with time zone]</text>
<polygon fill="none" stroke="black" points="46.2,-389 46.2,-419.8 318.17,-419.8 318.17,-389 46.2,-389"/>
<text text-anchor="start" x="53.2" y="-401.2" font-family="Arial" font-size="14.00">last_seen_at </text>
<text text-anchor="start" x="136.48" y="-401.2" font-family="Arial" font-size="14.00" fill="#666666">[timestamp with time zone]</text>
<polygon fill="none" stroke="black" stroke-width="3" points="44.7,-387.5 44.7,-703.3 319.67,-703.3 319.67,-387.5 44.7,-387.5"/>
</g>
<!-- public.rooms -->
<g id="node2" class="node">
<title>public.rooms</title>
<polygon fill="#efefef" stroke="none" points="57.3,-228 57.3,-263.6 307.07,-263.6 307.07,-228 57.3,-228"/>
<polygon fill="none" stroke="black" points="57.3,-228 57.3,-263.6 307.07,-263.6 307.07,-228 57.3,-228"/>
<text text-anchor="start" x="72.69" y="-241.4" font-family="Arial Bold" font-size="18.00">public.rooms</text>
<text text-anchor="start" x="167.19" y="-241.4" font-family="Arial" font-size="14.00">    </text>
<text text-anchor="start" x="198.3" y="-241.4" font-family="Arial" font-size="14.00" fill="#666666">[BASE TABLE]</text>
<polygon fill="none" stroke="black" points="57.3,-197.2 57.3,-228 307.07,-228 307.07,-197.2 57.3,-197.2"/>
<text text-anchor="start" x="64.3" y="-209.4" font-family="Arial" font-size="14.00">id </text>
<text text-anchor="start" x="79.08" y="-209.4" font-family="Arial" font-size="14.00" fill="#666666">[text]</text>
<polygon fill="none" stroke="black" points="57.3,-166.4 57.3,-197.2 307.07,-197.2 307.07,-166.4 57.3,-166.4"/>
<text text-anchor="start" x="64.3" y="-178.6" font-family="Arial" font-size="14.00">name </text>
<text text-anchor="start" x="103.21" y="-178.6" font-family="Arial" font-size="14.00" fill="#666666">[text]</text>
<polygon fill="none" stroke="black" points="57.3,-135.6 57.3,-166.4 307.07,-166.4 307.07,-135.6 57.3,-135.6"/>
<text text-anchor="start" x="64.3" y="-147.8" font-family="Arial" font-size="14.00">mode </text>
<text text-anchor="start" x="103.21" y="-147.8" font-family="Arial" font-size="14.00" fill="#666666">[text]</text>
<polygon fill="none" stroke="black" points="57.3,-104.8 57.3,-135.6 307.07,-135.6 307.07,-104.8 57.3,-104.8"/>
<text text-anchor="start" x="64.3" y="-117" font-family="Arial" font-size="14.00">host_id </text>
<text text-anchor="start" x="113.33" y="-117" font-family="Arial" font-size="14.00" fill="#666666">[text]</text>
<polygon fill="none" stroke="black" points="57.3,-74 57.3,-104.8 307.07,-104.8 307.07,-74 57.3,-74"/>
<text text-anchor="start" x="64.3" y="-86.2" font-family="Arial" font-size="14.00">admin_password_hash </text>
<text text-anchor="start" x="212.17" y="-86.2" font-family="Arial" font-size="14.00" fill="#666666">[text]</text>
<polygon fill="none" stroke="black" points="57.3,-43.2 57.3,-74 307.07,-74 307.07,-43.2 57.3,-43.2"/>
<text text-anchor="start" x="64.3" y="-55.4" font-family="Arial" font-size="14.00">created_at </text>
<text text-anchor="start" x="134.35" y="-55.4" font-family="Arial" font-size="14.00" fill="#666666">[timestamp with time zone]</text>
</g>
<!-- public.room_users&#45;&gt;public.rooms -->
<g id="edge1" class="edge">
<title>public.room_users:room_id&#45;&gt;public.rooms:id</title>
<path fill="none" stroke="black" d="M329.32,-618.18C408.75,-588.79 395.1,-212.6 308.07,-212.6"/>
<polygon fill="black" stroke="black" points="329.34,-618.18 318.71,-615.51 324.09,-619.12 319.83,-619.88 319.83,-619.88 319.83,-619.88 324.09,-619.12 320.29,-624.37 329.34,-618.18"/>
<text text-anchor="start" x="326.17" y="-630" font-family="Arial" font-size="10.00">FOREIGN KEY (room_id) REFERENCES rooms(id) ON DELETE CASCADE</text>
</g>
</g>
</svg>
