<?xml version="1.0" encoding="UTF-8" standalone="no"?>
<!DOCTYPE svg PUBLIC "-//W3C//DTD SVG 1.1//EN"
 "http://www.w3.org/Graphics/SVG/1.1/DTD/svg11.dtd">
<!-- Generated by graphviz version 12.1.2 (20240928.0832)
 -->
<!-- Title: public.playback_state Pages: 1 -->
<svg width="705pt" height="633pt"
 viewBox="0.00 0.00 704.75 632.80" xmlns="http://www.w3.org/2000/svg" xmlns:xlink="http://www.w3.org/1999/xlink">
<g id="graph0" class="graph" transform="scale(1 1) rotate(0) translate(4 628.8)">
<title>public.playback_state</title>
<polygon fill="white" stroke="none" points="-4,4 -4,-628.8 700.75,-628.8 700.75,4 -4,4"/>
<!-- public.playback_state -->
<g id="node1" class="node">
<title>public.playback_state</title>
<polygon fill="#efefef" stroke="none" points="46.2,-543 46.2,-578.6 341.13,-578.6 341.13,-543 46.2,-543"/>
<polygon fill="none" stroke="black" points="46.2,-543 46.2,-578.6 341.13,-578.6 341.13,-543 46.2,-543"/>
<text text-anchor="start" x="53.2" y="-556.4" font-family="Arial Bold" font-size="18.00">public.playback_state</text>
<text text-anchor="start" x="209.65" y="-556.4" font-family="Arial" font-size="14.00">    </text>
<text text-anchor="start" x="240.76" y="-556.4" font-family="Arial" font-size="14.00" fill="#666666">[BASE TABLE]</text>
<polygon fill="none" stroke="black" points="46.2,-512.2 46.2,-543 341.13,-543 341.13,-512.2 46.2,-512.2"/>
<text text-anchor="start" x="53.2" y="-524.4" font-family="Arial" font-size="14.00">room_id </text>
<text text-anchor="start" x="107.67" y="-524.4" font-family="Arial" font-size="14.00" fill="#666666">[text]</text>
<polygon fill="none" stroke="black" points="46.2,-481.4 46.2,-512.2 341.13,-512.2 341.13,-481.4 46.2,-481.4"/>
<text text-anchor="start" x="53.2" y="-493.6" font-family="Arial" font-size="14.00">current_song_id </text>
<text text-anchor="start" x="157.49" y="-493.6" font-family="Arial" font-size="14.00" fill="#666666">[text]</text>
<polygon fill="none" stroke="black" points="46.2,-450.6 46.2,-481.4 341.13,-481.4 341.13,-450.6 46.2,-450.6"/>
<text text-anchor="start" x="53.2" y="-462.8" font-family="Arial" font-size="14.00">is_playing </text>
<text text-anchor="start" x="119.35" y="-462.8" font-family="Arial" font-size="14.00" fill="#666666">[integer]</text>
<polygon fill="none" stroke="black" points="46.2,-419.8 46.2,-450.6 341.13,-450.6 341.13,-419.8 46.2,-419.8"/>
<text text-anchor="start" x="53.2" y="-432" font-family="Arial" font-size="14.00">position_ms </text>
<text text-anchor="start" x="131.79" y="-432" font-family="Arial" font-size="14.00" fill="#666666">[integer]</text>
<polygon fill="none" stroke="black" points="46.2,-389 46.2,-419.8 341.13,-419.8 341.13,-389 46.2,-389"/>
<text text-anchor="start" x="53.2" y="-401.2" font-family="Arial" font-size="14.00">updated_at </text>
<text text-anchor="start" x="127.16" y="-401.2" font-family="Arial" font-size="14.00" fill="#666666">[timestamp with time zone]</text>
<polygon fill="none" stroke="black" stroke-width="3" points="44.7,-387.5 44.7,-580.1 342.63,-580.1 342.63,-387.5 44.7,-387.5"/>
</g>
<!-- public.rooms -->
<g id="node2" class="node">
<title>public.rooms</title>
<polygon fill="#efefef" stroke="none" points="68.78,-228 68.78,-263.6 318.55,-263.6 318.55,-228 68.78,-228"/>
<polygon fill="none" stroke="black" points="68.78,-228 68.78,-263.6 318.55,-263.6 318.55,-228 68.78,-228"/>
<text text-anchor="start" x="84.18" y="-241.4" font-family="Arial Bold" font-size="18.00">public.rooms</text>
<text text-anchor="start" x="178.67" y="-241.4" font-family="Arial" font-size="14.00">    </text>
<text text-anchor="start" x="209.79" y="-241.4" font-family="Arial" font-size="14.00" fill="#666666">[BASE TABLE]</text>
<polygon fill="none" stroke="black" points="68.78,-197.2 68.78,-228 318.55,-228 318.55,-197.2 68.78,-197.2"/>
<text text-anchor="start" x="75.78" y="-209.4" font-family="Arial" font-size="14.00">id </text>
<text text-anchor="start" x="90.57" y="-209.4" font-family="Arial" font-size="14.00" fill="#666666">[text]</text>
<polygon fill="none" stroke="black" points="68.78,-166.4 68.78,-197.2 318.55,-197.2 318.55,-166.4 68.78,-166.4"/>
<text text-anchor="start" x="75.78" y="-178.6" font-family="Arial" font-size="14.00">name </text>
<text text-anchor="start" x="114.69" y="-178.6" font-family="Arial" font-size="14.00" fill="#666666">[text]</text>
<polygon fill="none" stroke="black" points="68.78,-135.6 68.78,-166.4 318.55,-166.4 318.55,-135.6 68.78,-135.6"/>
<text text-anchor="start" x="75.78" y="-147.8" font-family="Arial" font-size="14.00">mode </text>
<text text-anchor="start" x="114.69" y="-147.8" font-family="Arial" font-size="14.00" fill="#666666">[text]</text>
<polygon fill="none" stroke="black" points="68.78,-104.8 68.78,-135.6 318.55,-135.6 318.55,-104.8 68.78,-104.8"/>
<text text-anchor="start" x="75.78" y="-117" font-family="Arial" font-size="14.00">host_id </text>
<text text-anchor="start" x="124.82" y="-117" font-family="Arial" font-size="14.00" fill="#666666">[text]</text>
<polygon fill="none" stroke="black" points="68.78,-74 68.78,-104.8 318.55,-104.8 318.55,-74 68.78,-74"/>
<text text-anchor="start" x="75.78" y="-86.2" font-family="Arial" font-size="14.00">admin_password_hash </text>
<text text-anchor="start" x="223.65" y="-86.2" font-family="Arial" font-size="14.00" fill="#666666">[text]</text>
<polygon fill="none" stroke="black" points="68.78,-43.2 68.78,-74 318.55,-74 318.55,-43.2 68.78,-43.2"/>
<text text-anchor="start" x="75.78" y="-55.4" font-family="Arial" font-size="14.00">created_at </text>
<text text-anchor="start" x="145.83" y="-55.4" font-family="Arial" font-size="14.00" fill="#666666">[timestamp with time zone]</text>
</g>
<!-- public.playback_state&#45;&gt;public.rooms -->
<g id="edge1" class="edge">
<title>public.playback_state:room_id&#45;&gt;public.rooms:id</title>
<path fill="none" stroke="black" d="M352.11,-525.25C409.9,-496.42 386.17,-212.6 319.55,-212.6"/>
<polygon fill="black" stroke="black" points="352.19,-525.23 341.43,-523.14 347,-526.45 342.79,-527.45 342.79,-527.45 342.79,-527.45 347,-526.45 343.49,-531.9 352.19,-525.23"/>
<text text-anchor="start" x="349.13" y="-537.6" font-family="Arial" font-size="10.00">FOREIGN KEY (room_id) REFERENCES rooms(id) ON DELETE CASCADE</text>
</g>
</g>
</svg>
