<?xml version="1.0" encoding="UTF-8" standalone="no"?>
<!DOCTYPE svg PUBLIC "-//W3C//DTD SVG 1.1//EN"
 "http://www.w3.org/Graphics/SVG/1.1/DTD/svg11.dtd">
<!-- Generated by graphviz version 12.1.2 (20240928.0832)
 -->
<!-- Title: public.song_votes Pages: 1 -->
<svg width="986pt" height="787pt"
 viewBox="0.00 0.00 986.02 786.80" xmlns="http://www.w3.org/2000/svg" xmlns:xlink="http://www.w3.org/1999/xlink">
<g id="graph0" class="graph" transform="scale(1 1) rotate(0) translate(4 782.8)">
<title>public.song_votes</title>
<polygon fill="white" stroke="none" points="-4,4 -4,-782.8 982.02,-782.8 982.02,4 -4,4"/>
<!-- public.song_votes -->
<g id="node1" class="node">
<title>public.song_votes</title>
<polygon fill="#efefef" stroke="none" points="355.62,-697 355.62,-732.6 624.6,-732.6 624.6,-697 355.62,-697"/>
<polygon fill="none" stroke="black" points="355.62,-697 355.62,-732.6 624.6,-732.6 624.6,-697 355.62,-697"/>
<text text-anchor="start" x="362.62" y="-710.4" font-family="Arial Bold" font-size="18.00">public.song_votes</text>
<text text-anchor="start" x="493.11" y="-710.4" font-family="Arial" font-size="14.00">    </text>
<text text-anchor="start" x="524.23" y="-710.4" font-family="Arial" font-size="14.00" fill="#666666">[BASE TABLE]</text>
<polygon fill="none" stroke="black" points="355.62,-666.2 355.62,-697 624.6,-697 624.6,-666.2 355.62,-666.2"/>
<text text-anchor="start" x="362.62" y="-678.4" font-family="Arial" font-size="14.00">room_id </text>
<text text-anchor="start" x="417.09" y="-678.4" font-family="Arial" font-size="14.00" fill="#666666">[text]</text>
<polygon fill="none" stroke="black" points="355.62,-635.4 355.62,-666.2 624.6,-666.2 624.6,-635.4 355.62,-635.4"/>
<text text-anchor="start" x="362.62" y="-647.6" font-family="Arial" font-size="14.00">song_id </text>
<text text-anchor="start" x="415.55" y="-647.6" font-family="Arial" font-size="14.00" fill="#666666">[text]</text>
<polygon fill="none" stroke="black" points="355.62,-604.6 355.62,-635.4 624.6,-635.4 624.6,-604.6 355.62,-604.6"/>
<text text-anchor="start" x="362.62" y="-616.8" font-family="Arial" font-size="14.00">user_id </text>
<text text-anchor="start" x="412.43" y="-616.8" font-family="Arial" font-size="14.00" fill="#666666">[text]</text>
<polygon fill="none" stroke="black" points="355.62,-573.8 355.62,-604.6 624.6,-604.6 624.6,-573.8 355.62,-573.8"/>
<text text-anchor="start" x="362.62" y="-586" font-family="Arial" font-size="14.00">created_at </text>
<text text-anchor="start" x="432.67" y="-586" font-family="Arial" font-size="14.00" fill="#666666">[timestamp with time zone]</text>
<polygon fill="none" stroke="black" stroke-width="3" points="354.12,-572.3 354.12,-734.1 626.1,-734.1 626.1,-572.3 354.12,-572.3"/>
</g>
<!-- public.rooms -->
<g id="node2" class="node">
<title>public.rooms</title>
<polygon fill="#efefef" stroke="none" points="190.22,-320.4 190.22,-356 440,-356 440,-320.4 190.22,-320.4"/>
<polygon fill="none" stroke="black" points="190.22,-320.4 190.22,-356 440,-356 440,-320.4 190.22,-320.4"/>
<text text-anchor="start" x="205.62" y="-333.8" font-family="Arial Bold" font-size="18.00">public.rooms</text>
<text text-anchor="start" x="300.11" y="-333.8" font-family="Arial" font-size="14.00">    </text>
<text text-anchor="start" x="331.23" y="-333.8" font-family="Arial" font-size="14.00" fill="#666666">[BASE TABLE]</text>
<polygon fill="none" stroke="black" points="190.22,-289.6 190.22,-320.4 440,-320.4 440,-289.6 190.22,-289.6"/>
<text text-anchor="start" x="197.22" y="-301.8" font-family="Arial" font-size="14.00">id </text>
<text text-anchor="start" x="212.01" y="-301.8" font-family="Arial" font-size="14.00" fill="#666666">[text]</text>
<polygon fill="none" stroke="black" points="190.22,-258.8 190.22,-289.6 440,-289.6 440,-258.8 190.22,-258.8"/>
<text text-anchor="start" x="197.22" y="-271" font-family="Arial" font-size="14.00">name </text>
<text text-anchor="start" x="236.13" y="-271" font-family="Arial" font-size="14.00" fill="#666666">[text]</text>
<polygon fill="none" stroke="black" points="190.22,-228 190.22,-258.8 440,-258.8 440,-228 190.22,-228"/>
<text text-anchor="start" x="197.22" y="-240.2" font-family="Arial" font-size="14.00">mode </text>
<text text-anchor="start" x="236.13" y="-240.2" font-family="Arial" font-size="14.00" fill="#666666">[text]</text>
<polygon fill="none" stroke="black" points="190.22,-197.2 190.22,-228 440,-228 440,-197.2 190.22,-197.2"/>
<text text-anchor="start" x="197.22" y="-209.4" font-family="Arial" font-size="14.00">host_id </text>
<text text-anchor="start" x="246.26" y="-209.4" font-family="Arial" font-size="14.00" fill="#666666">[text]</text>
<polygon fill="none" stroke="black" points="190.22,-166.4 190.22,-197.2 440,-197.2 440,-166.4 190.22,-166.4"/>
<text text-anchor="start" x="197.22" y="-178.6" font-family="Arial" font-size="14.00">admin_password_hash </text>
<text text-anchor="start" x="345.09" y="-178.6" font-family="Arial" font-size="14.00" fill="#666666">[text]</text>
<polygon fill="none" stroke="black" points="190.22,-135.6 190.22,-166.4 440,-166.4 440,-135.6 190.22,-135.6"/>
<text text-anchor="start" x="197.22" y="-147.8" font-family="Arial" font-size="14.00">created_at </text>
<text text-anchor="start" x="267.27" y="-147.8" font-family="Arial" font-size="14.00" fill="#666666">[timestamp with time zone]</text>
</g>
<!-- public.song_votes&#45;&gt;public.rooms -->
<g id="edge1" class="edge">
<title>public.song_votes:room_id&#45;&gt;public.rooms:id</title>
<path fill="none" stroke="black" d="M344.28,-681.24C202.73,-671.01 426.71,-442.77 440,-399.2 452.21,-359.15 482.87,-305 441,-305"/>
<polygon fill="black" stroke="black" points="344.29,-681.25 354.13,-686.09 349.62,-681.43 353.95,-681.58 353.95,-681.58 353.95,-681.58 349.62,-681.43 354.44,-677.09 344.29,-681.25"/>
<text text-anchor="start" x="7" y="-691.6" font-family="Arial" font-size="10.00">FOREIGN KEY (room_id) REFERENCES rooms(id) ON DELETE CASCADE</text>
</g>
<!-- public.songs -->
<g id="node3" class="node">
<title>public.songs</title>
<polygon fill="#efefef" stroke="none" points="544.11,-412.8 544.11,-448.4 786.11,-448.4 786.11,-412.8 544.11,-412.8"/>
<polygon fill="none" stroke="black" points="544.11,-412.8 544.11,-448.4 786.11,-448.4 786.11,-412.8 544.11,-412.8"/>
<text text-anchor="start" x="557.62" y="-426.2" font-family="Arial Bold" font-size="18.00">public.songs</text>
<text text-anchor="start" x="648.12" y="-426.2" font-family="Arial" font-size="14.00">    </text>
<text text-anchor="start" x="679.23" y="-426.2" font-family="Arial" font-size="14.00" fill="#666666">[BASE TABLE]</text>
<polygon fill="none" stroke="black" points="544.11,-382 544.11,-412.8 786.11,-412.8 786.11,-382 544.11,-382"/>
<text text-anchor="start" x="551.11" y="-394.2" font-family="Arial" font-size="14.00">id </text>
<text text-anchor="start" x="565.89" y="-394.2" font-family="Arial" font-size="14.00" fill="#666666">[text]</text>
<polygon fill="none" stroke="black" points="544.11,-351.2 544.11,-382 786.11,-382 786.11,-351.2 544.11,-351.2"/>
<text text-anchor="start" x="551.11" y="-363.4" font-family="Arial" font-size="14.00">room_id </text>
<text text-anchor="start" x="605.58" y="-363.4" font-family="Arial" font-size="14.00" fill="#666666">[text]</text>
<polygon fill="none" stroke="black" points="544.11,-320.4 544.11,-351.2 786.11,-351.2 786.11,-320.4 544.11,-320.4"/>
<text text-anchor="start" x="551.11" y="-332.6" font-family="Arial" font-size="14.00">source_type </text>
<text text-anchor="start" x="631.27" y="-332.6" font-family="Arial" font-size="14.00" fill="#666666">[text]</text>
<polygon fill="none" stroke="black" points="544.11,-289.6 544.11,-320.4 786.11,-320.4 786.11,-289.6 544.11,-289.6"/>
<text text-anchor="start" x="551.11" y="-301.8" font-family="Arial" font-size="14.00">source_id </text>
<text text-anchor="start" x="615.7" y="-301.8" font-family="Arial" font-size="14.00" fill="#666666">[text]</text>
<polygon fill="none" stroke="black" points="544.11,-258.8 544.11,-289.6 786.11,-289.6 786.11,-258.8 544.11,-258.8"/>
<text text-anchor="start" x="551.11" y="-271" font-family="Arial" font-size="14.00">title </text>
<text text-anchor="start" x="576.78" y="-271" font-family="Arial" font-size="14.00" fill="#666666">[text]</text>
<polygon fill="none" stroke="black" points="544.11,-228 544.11,-258.8 786.11,-258.8 786.11,-228 544.11,-228"/>
<text text-anchor="start" x="551.11" y="-240.2" font-family="Arial" font-size="14.00">artist </text>
<text text-anchor="start" x="585.33" y="-240.2" font-family="Arial" font-size="14.00" fill="#666666">[text]</text>
<polygon fill="none" stroke="black" points="544.11,-197.2 544.11,-228 786.11,-228 786.11,-197.2 544.11,-197.2"/>
<text text-anchor="start" x="551.11" y="-209.4" font-family="Arial" font-size="14.00">thumbnail_url </text>
<text text-anchor="start" x="639.04" y="-209.4" font-family="Arial" font-size="14.00" fill="#666666">[text]</text>
<polygon fill="none" stroke="black" points="544.11,-166.4 544.11,-197.2 786.11,-197.2 786.11,-166.4 544.11,-166.4"/>
<text text-anchor="start" x="551.11" y="-178.6" font-family="Arial" font-size="14.00">duration </text>
<text text-anchor="start" x="605.59" y="-178.6" font-family="Arial" font-size="14.00" fill="#666666">[integer]</text>
<polygon fill="none" stroke="black" points="544.11,-135.6 544.11,-166.4 786.11,-166.4 786.11,-135.6 544.11,-135.6"/>
<text text-anchor="start" x="551.11" y="-147.8" font-family="Arial" font-size="14.00">added_by </text>
<text text-anchor="start" x="616.5" y="-147.8" font-family="Arial" font-size="14.00" fill="#666666">[text]</text>
<polygon fill="none" stroke="black" points="544.11,-104.8 544.11,-135.6 786.11,-135.6 786.11,-104.8 544.11,-104.8"/>
<text text-anchor="start" x="551.11" y="-117" font-family="Arial" font-size="14.00">added_by_nickname </text>
<text text-anchor="start" x="684.2" y="-117" font-family="Arial" font-size="14.00" fill="#666666">[text]</text>
<polygon fill="none" stroke="black" points="544.11,-74 544.11,-104.8 786.11,-104.8 786.11,-74 544.11,-74"/>
<text text-anchor="start" x="551.11" y="-86.2" font-family="Arial" font-size="14.00">added_at </text>
<text text-anchor="start" x="613.39" y="-86.2" font-family="Arial" font-size="14.00" fill="#666666">[timestamp with time zone]</text>
<polygon fill="none" stroke="black" points="544.11,-43.2 544.11,-74 786.11,-74 786.11,-43.2 544.11,-43.2"/>
<text text-anchor="start" x="551.11" y="-55.4" font-family="Arial" font-size="14.00">position </text>
<text text-anchor="start" x="603.25" y="-55.4" font-family="Arial" font-size="14.00" fill="#666666">[integer]</text>
</g>
<!-- public.song_votes&#45;&gt;public.songs -->
<g id="edge2" class="edge">
<title>public.song_votes:song_id&#45;&gt;public.songs:id</title>
<path fill="none" stroke="black" d="M635.98,-649.69C676.71,-640.08 652.46,-570.2 624.6,-527.6 603.15,-494.8 565.6,-524.37 544.11,-491.6 521.15,-456.59 501.24,-397.4 543.11,-397.4"/>
<polygon fill="black" stroke="black" points="635.88,-649.7 625.45,-646.29 630.57,-650.27 626.27,-650.73 626.27,-650.73 626.27,-650.73 630.57,-650.27 626.41,-655.24 635.88,-649.7"/>
<text text-anchor="start" x="632.6" y="-660.8" font-family="Arial" font-size="10.00">FOREIGN KEY (song_id) REFERENCES songs(id) ON DELETE CASCADE</text>
</g>
</g>
</svg>
