<?xml version="1.0" encoding="UTF-8" standalone="no"?>
<!DOCTYPE svg PUBLIC "-//W3C//DTD SVG 1.1//EN"
 "http://www.w3.org/Graphics/SVG/1.1/DTD/svg11.dtd">
<!-- Generated by graphviz version 12.1.2 (20240928.0832)
 -->
<!-- Title: public.skip_votes Pages: 1 -->
<svg width="982pt" height="787pt"
 viewBox="0.00 0.00 982.02 786.80" xmlns="http://www.w3.org/2000/svg" xmlns:xlink="http://www.w3.org/1999/xlink">
<g id="graph0" class="graph" transform="scale(1 1) rotate(0) translate(4 782.8)">
<title>public.skip_votes</title>
<polygon fill="white" stroke="none" points="-4,4 -4,-782.8 978.02,-782.8 978.02,4 -4,4"/>
<!-- public.skip_votes -->
<g id="node1" class="node">
<title>public.skip_votes</title>
<polygon fill="#efefef" stroke="none" points="355.62,-697 355.62,-732.6 620.6,-732.6 620.6,-697 355.62,-697"/>
<polygon fill="none" stroke="black" points="355.62,-697 355.62,-732.6 620.6,-732.6 620.6,-697 355.62,-697"/>
<text text-anchor="start" x="362.62" y="-710.4" font-family="Arial Bold" font-size="18.00">public.skip_votes</text>
<text text-anchor="start" x="489.11" y="-710.4" font-family="Arial" font-size="14.00">    </text>
<text text-anchor="start" x="520.23" y="-710.4" font-family="Arial" font-size="14.00" fill="#666666">[BASE TABLE]</text>
<polygon fill="none" stroke="black" points="355.62,-666.2 355.62,-697 620.6,-697 620.6,-666.2 355.62,-666.2"/>
<text text-anchor="start" x="362.62" y="-678.4" font-family="Arial" font-size="14.00">room_id </text>
<text text-anchor="start" x="417.09" y="-678.4" font-family="Arial" font-size="14.00" fill="#666666">[text]</text>
<polygon fill="none" stroke="black" points="355.62,-635.4 355.62,-666.2 620.6,-666.2 620.6,-635.4 355.62,-635.4"/>
<text text-anchor="start" x="362.62" y="-647.6" font-family="Arial" font-size="14.00">song_id </text>
<text text-anchor="start" x="415.55" y="-647.6" font-family="Arial" font-size="14.00" fill="#666666">[text]</text>
<polygon fill="none" stroke="black" points="355.62,-604.6 355.62,-635.4 620.6,-635.4 620.6,-604.6 355.62,-604.6"/>
<text text-anchor="start" x="362.62" y="-616.8" font-family="Arial" font-size="14.00">user_id </text>
<text text-anchor="start" x="412.43" y="-616.8" font-family="Arial" font-size="14.00" fill="#666666">[text]</text>
<polygon fill="none" stroke="black" points="355.62,-573.8 355.62,-604.6 620.6,-604.6 620.6,-573.8 355.62,-573.8"/>
<text text-anchor="start" x="362.62" y="-586" font-family="Arial" font-size="14.00">created_at </text>
<text text-anchor="start" x="432.67" y="-586" font-family="Arial" font-size="14.00" fill="#666666">[timestamp with time zone]</text>
<polygon fill="none" stroke="black" stroke-width="3" points="354.12,-572.3 354.12,-734.1 622.1,-734.1 622.1,-572.3 354.12,-572.3"/>
</g>
<!-- public.rooms -->
<g id="node2" class="node">
<title>public.rooms</title>
<polygon fill="#efefef" stroke="none" points="188.23,-320.4 188.23,-356 438,-356 438,-320.4 188.23,-320.4"/>
<polygon fill="none" stroke="black" points="188.23,-320.4 188.23,-356 438,-356 438,-320.4 188.23,-320.4"/>
<text text-anchor="start" x="203.62" y="-333.8" font-family="Arial Bold" font-size="18.00">public.rooms</text>
<text text-anchor="start" x="298.11" y="-333.8" font-family="Arial" font-size="14.00">    </text>
<text text-anchor="start" x="329.23" y="-333.8" font-family="Arial" font-size="14.00" fill="#666666">[BASE TABLE]</text>
<polygon fill="none" stroke="black" points="188.23,-289.6 188.23,-320.4 438,-320.4 438,-289.6 188.23,-289.6"/>
<text text-anchor="start" x="195.23" y="-301.8" font-family="Arial" font-size="14.00">id </text>
<text text-anchor="start" x="210.01" y="-301.8" font-family="Arial" font-size="14.00" fill="#666666">[text]</text>
<polygon fill="none" stroke="black" points="188.23,-258.8 188.23,-289.6 438,-289.6 438,-258.8 188.23,-258.8"/>
<text text-anchor="start" x="195.23" y="-271" font-family="Arial" font-size="14.00">name </text>
<text text-anchor="start" x="234.14" y="-271" font-family="Arial" font-size="14.00" fill="#666666">[text]</text>
<polygon fill="none" stroke="black" points="188.23,-228 188.23,-258.8 438,-258.8 438,-228 188.23,-228"/>
<text text-anchor="start" x="195.23" y="-240.2" font-family="Arial" font-size="14.00">mode </text>
<text text-anchor="start" x="234.14" y="-240.2" font-family="Arial" font-size="14.00" fill="#666666">[text]</text>
<polygon fill="none" stroke="black" points="188.23,-197.2 188.23,-228 438,-228 438,-197.2 188.23,-197.2"/>
<text text-anchor="start" x="195.23" y="-209.4" font-family="Arial" font-size="14.00">host_id </text>
<text text-anchor="start" x="244.26" y="-209.4" font-family="Arial" font-size="14.00" fill="#666666">[text]</text>
<polygon fill="none" stroke="black" points="188.23,-166.4 188.23,-197.2 438,-197.2 438,-166.4 188.23,-166.4"/>
<text text-anchor="start" x="195.23" y="-178.6" font-family="Arial" font-size="14.00">admin_password_hash </text>
<text text-anchor="start" x="343.09" y="-178.6" font-family="Arial" font-size="14.00" fill="#666666">[text]</text>
<polygon fill="none" stroke="black" points="188.23,-135.6 188.23,-166.4 438,-166.4 438,-135.6 188.23,-135.6"/>
<text text-anchor="start" x="195.23" y="-147.8" font-family="Arial" font-size="14.00">created_at </text>
<text text-anchor="start" x="265.27" y="-147.8" font-family="Arial" font-size="14.00" fill="#666666">[timestamp with time zone]</text>
</g>
<!-- public.skip_votes&#45;&gt;public.rooms -->
<g id="edge1" class="edge">
<title>public.skip_votes:room_id&#45;&gt;public.rooms:id</title>
<path fill="none" stroke="black" d="M344.49,-681.24C205.82,-670.89 425.79,-440.01 438,-399.2 449.99,-359.09 480.87,-305 439,-305"/>
<polygon fill="black" stroke="black" points="344.29,-681.23 354.13,-686.09 349.62,-681.42 353.95,-681.58 353.95,-681.58 353.95,-681.58 349.62,-681.42 354.45,-677.09 344.29,-681.23"/>
<text text-anchor="start" x="7" y="-691.6" font-family="Arial" font-size="10.00">FOREIGN KEY (room_id) REFERENCES rooms(id) ON DELETE CASCADE</text>
</g>
<!-- public.songs -->
<g id="node3" class="node">
<title>public.songs</title>
<polygon fill="#efefef" stroke="none" points="542.11,-412.8 542.11,-448.4 784.11,-448.4 784.11,-412.8 542.11,-412.8"/>
<polygon fill="none" stroke="black" points="542.11,-412.8 542.11,-448.4 784.11,-448.4 784.11,-412.8 542.11,-412.8"/>
<text text-anchor="start" x="555.62" y="-426.2" font-family="Arial Bold" font-size="18.00">public.songs</text>
<text text-anchor="start" x="646.12" y="-426.2" font-family="Arial" font-size="14.00">    </text>
<text text-anchor="start" x="677.23" y="-426.2" font-family="Arial" font-size="14.00" fill="#666666">[BASE TABLE]</text>
<polygon fill="none" stroke="black" points="542.11,-382 542.11,-412.8 784.11,-412.8 784.11,-382 542.11,-382"/>
<text text-anchor="start" x="549.11" y="-394.2" font-family="Arial" font-size="14.00">id </text>
<text text-anchor="start" x="563.89" y="-394.2" font-family="Arial" font-size="14.00" fill="#666666">[text]</text>
<polygon fill="none" stroke="black" points="542.11,-351.2 542.11,-382 784.11,-382 784.11,-351.2 542.11,-351.2"/>
<text text-anchor="start" x="549.11" y="-363.4" font-family="Arial" font-size="14.00">room_id </text>
<text text-anchor="start" x="603.58" y="-363.4" font-family="Arial" font-size="14.00" fill="#666666">[text]</text>
<polygon fill="none" stroke="black" points="542.11,-320.4 542.11,-351.2 784.11,-351.2 784.11,-320.4 542.11,-320.4"/>
<text text-anchor="start" x="549.11" y="-332.6" font-family="Arial" font-size="14.00">source_type </text>
<text text-anchor="start" x="629.27" y="-332.6" font-family="Arial" font-size="14.00" fill="#666666">[text]</text>
<polygon fill="none" stroke="black" points="542.11,-289.6 542.11,-320.4 784.11,-320.4 784.11,-289.6 542.11,-289.6"/>
<text text-anchor="start" x="549.11" y="-301.8" font-family="Arial" font-size="14.00">source_id </text>
<text text-anchor="start" x="613.7" y="-301.8" font-family="Arial" font-size="14.00" fill="#666666">[text]</text>
<polygon fill="none" stroke="black" points="542.11,-258.8 542.11,-289.6 784.11,-289.6 784.11,-258.8 542.11,-258.8"/>
<text text-anchor="start" x="549.11" y="-271" font-family="Arial" font-size="14.00">title </text>
<text text-anchor="start" x="574.78" y="-271" font-family="Arial" font-size="14.00" fill="#666666">[text]</text>
<polygon fill="none" stroke="black" points="542.11,-228 542.11,-258.8 784.11,-258.8 784.11,-228 542.11,-228"/>
<text text-anchor="start" x="549.11" y="-240.2" font-family="Arial" font-size="14.00">artist </text>
<text text-anchor="start" x="583.34" y="-240.2" font-family="Arial" font-size="14.00" fill="#666666">[text]</text>
<polygon fill="none" stroke="black" points="542.11,-197.2 542.11,-228 784.11,-228 784.11,-197.2 542.11,-197.2"/>
<text text-anchor="start" x="549.11" y="-209.4" font-family="Arial" font-size="14.00">thumbnail_url </text>
<text text-anchor="start" x="637.05" y="-209.4" font-family="Arial" font-size="14.00" fill="#666666">[text]</text>
<polygon fill="none" stroke="black" points="542.11,-166.4 542.11,-197.2 784.11,-197.2 784.11,-166.4 542.11,-166.4"/>
<text text-anchor="start" x="549.11" y="-178.6" font-family="Arial" font-size="14.00">duration </text>
<text text-anchor="start" x="603.59" y="-178.6" font-family="Arial" font-size="14.00" fill="#666666">[integer]</text>
<polygon fill="none" stroke="black" points="542.11,-135.6 542.11,-166.4 784.11,-166.4 784.11,-135.6 542.11,-135.6"/>
<text text-anchor="start" x="549.11" y="-147.8" font-family="Arial" font-size="14.00">added_by </text>
<text text-anchor="start" x="614.5" y="-147.8" font-family="Arial" font-size="14.00" fill="#666666">[text]</text>
<polygon fill="none" stroke="black" points="542.11,-104.8 542.11,-135.6 784.11,-135.6 784.11,-104.8 542.11,-104.8"/>
<text text-anchor="start" x="549.11" y="-117" font-family="Arial" font-size="14.00">added_by_nickname </text>
<text text-anchor="start" x="682.2" y="-117" font-family="Arial" font-size="14.00" fill="#666666">[text]</text>
<polygon fill="none" stroke="black" points="542.11,-74 542.11,-104.8 784.11,-104.8 784.11,-74 542.11,-74"/>
<text text-anchor="start" x="549.11" y="-86.2" font-family="Arial" font-size="14.00">added_at </text>
<text text-anchor="start" x="611.39" y="-86.2" font-family="Arial" font-size="14.00" fill="#666666">[timestamp with time zone]</text>
<polygon fill="none" stroke="black" points="542.11,-43.2 542.11,-74 784.11,-74 784.11,-43.2 542.11,-43.2"/>
<text text-anchor="start" x="549.11" y="-55.4" font-family="Arial" font-size="14.00">position </text>
<text text-anchor="start" x="601.25" y="-55.4" font-family="Arial" font-size="14.00" fill="#666666">[integer]</text>
</g>
<!-- public.skip_votes&#45;&gt;public.songs -->
<g id="edge2" class="edge">
<title>public.skip_votes:song_id&#45;&gt;public.songs:id</title>
<path fill="none" stroke="black" d="M631.98,-649.69C672.68,-640.09 648.26,-570.34 620.6,-527.6 599.75,-495.38 563,-523.79 542.11,-491.6 519.31,-456.48 499.24,-397.4 541.11,-397.4"/>
<polygon fill="black" stroke="black" points="631.88,-649.7 621.46,-646.29 626.57,-650.27 622.27,-650.73 622.27,-650.73 622.27,-650.73 626.57,-650.27 622.41,-655.24 631.88,-649.7"/>
<text text-anchor="start" x="628.6" y="-660.8" font-family="Arial" font-size="10.00">FOREIGN KEY (song_id) REFERENCES songs(id) ON DELETE CASCADE</text>
</g>
</g>
</svg>
