<?xml version="1.0" encoding="UTF-8" standalone="no"?>
<!DOCTYPE svg PUBLIC "-//W3C//DTD SVG 1.1//EN"
 "http://www.w3.org/Graphics/SVG/1.1/DTD/svg11.dtd">
<!-- Generated by graphviz version 12.1.2 (20240928.0832)
 -->
<!-- Title: public.room_settings Pages: 1 -->
<svg width="700pt" height="787pt"
 viewBox="0.00 0.00 699.80 786.80" xmlns="http://www.w3.org/2000/svg" xmlns:xlink="http://www.w3.org/1999/xlink">
<g id="graph0" class="graph" transform="scale(1 1) rotate(0) translate(4 782.8)">
<title>public.room_settings</title>
<polygon fill="white" stroke="none" points="-4,4 -4,-782.8 695.8,-782.8 695.8,4 -4,4"/>
<!-- public.room_settings -->
<g id="node1" class="node">
<title>public.room_settings</title>
<polygon fill="#efefef" stroke="none" points="46.2,-697 46.2,-732.6 336.18,-732.6 336.18,-697 46.2,-697"/>
<polygon fill="none" stroke="black" points="46.2,-697 46.2,-732.6 336.18,-732.6 336.18,-697 46.2,-697"/>
<text text-anchor="start" x="53.2" y="-710.4" font-family="Arial Bold" font-size="18.00">public.room_settings</text>
<text text-anchor="start" x="204.69" y="-710.4" font-family="Arial" font-size="14.00">    </text>
<text text-anchor="start" x="235.81" y="-710.4" font-family="Arial" font-size="14.00" fill="#666666">[BASE TABLE]</text>
<polygon fill="none" stroke="black" points="46.2,-666.2 46.2,-697 336.18,-697 336.18,-666.2 46.2,-666.2"/>
<text text-anchor="start" x="53.2" y="-678.4" font-family="Arial" font-size="14.00">room_id </text>
<text text-anchor="start" x="107.67" y="-678.4" font-family="Arial" font-size="14.00" fill="#666666">[text]</text>
<polygon fill="none" stroke="black" points="46.2,-635.4 46.2,-666.2 336.18,-666.2 336.18,-635.4 46.2,-635.4"/>
<text text-anchor="start" x="53.2" y="-647.6" font-family="Arial" font-size="14.00">skip_allowed </text>
<text text-anchor="start" x="137.25" y="-647.6" font-family="Arial" font-size="14.00" fill="#666666">[integer]</text>
<polygon fill="none" stroke="black" points="46.2,-604.6 46.2,-635.4 336.18,-635.4 336.18,-604.6 46.2,-604.6"/>
<text text-anchor="start" x="53.2" y="-616.8" font-family="Arial" font-size="14.00">democratic_skip </text>
<text text-anchor="start" x="158.24" y="-616.8" font-family="Arial" font-size="14.00" fill="#666666">[integer]</text>
<polygon fill="none" stroke="black" points="46.2,-573.8 46.2,-604.6 336.18,-604.6 336.18,-573.8 46.2,-573.8"/>
<text text-anchor="start" x="53.2" y="-586" font-family="Arial" font-size="14.00">skip_vote_threshold </text>
<text text-anchor="start" x="181.61" y="-586" font-family="Arial" font-size="14.00" fill="#666666">[real]</text>
<polygon fill="none" stroke="black" points="46.2,-543 46.2,-573.8 336.18,-573.8 336.18,-543 46.2,-543"/>
<text text-anchor="start" x="53.2" y="-555.2" font-family="Arial" font-size="14.00">max_continuous_adds </text>
<text text-anchor="start" x="197.19" y="-555.2" font-family="Arial" font-size="14.00" fill="#666666">[integer]</text>
<polygon fill="none" stroke="black" points="46.2,-512.2 46.2,-543 336.18,-543 336.18,-512.2 46.2,-512.2"/>
<text text-anchor="start" x="53.2" y="-524.4" font-family="Arial" font-size="14.00">remove_on_play </text>
<text text-anchor="start" x="160.6" y="-524.4" font-family="Arial" font-size="14.00" fill="#666666">[integer]</text>
<polygon fill="none" stroke="black" points="46.2,-481.4 46.2,-512.2 336.18,-512.2 336.18,-481.4 46.2,-481.4"/>
<text text-anchor="start" x="53.2" y="-493.6" font-family="Arial" font-size="14.00">loop_queue </text>
<text text-anchor="start" x="130.28" y="-493.6" font-family="Arial" font-size="14.00" fill="#666666">[integer]</text>
<polygon fill="none" stroke="black" points="46.2,-450.6 46.2,-481.4 336.18,-481.4 336.18,-450.6 46.2,-450.6"/>
<text text-anchor="start" x="53.2" y="-462.8" font-family="Arial" font-size="14.00">allow_duplicates </text>
<text text-anchor="start" x="159.82" y="-462.8" font-family="Arial" font-size="14.00" fill="#666666">[integer]</text>
<polygon fill="none" stroke="black" points="46.2,-419.8 46.2,-450.6 336.18,-450.6 336.18,-419.8 46.2,-419.8"/>
<text text-anchor="start" x="53.2" y="-432" font-family="Arial" font-size="14.00">enabled_sources </text>
<text text-anchor="start" x="163.72" y="-432" font-family="Arial" font-size="14.00" fill="#666666">[text]</text>
<polygon fill="none" stroke="black" points="46.2,-389 46.2,-419.8 336.18,-419.8 336.18,-389 46.2,-389"/>
<text text-anchor="start" x="53.2" y="-401.2" font-family="Arial" font-size="14.00">only_admin_add_songs </text>
<text text-anchor="start" x="204.98" y="-401.2" font-family="Arial" font-size="14.00" fill="#666666">[integer]</text>
<polygon fill="none" stroke="black" stroke-width="3" points="44.7,-387.5 44.7,-734.1 337.68,-734.1 337.68,-387.5 44.7,-387.5"/>
</g>
<!-- public.rooms -->
<g id="node2" class="node">
<title>public.rooms</title>
<polygon fill="#efefef" stroke="none" points="66.3,-228 66.3,-263.6 316.07,-263.6 316.07,-228 66.3,-228"/>
<polygon fill="none" stroke="black" points="66.3,-228 66.3,-263.6 316.07,-263.6 316.07,-228 66.3,-228"/>
<text text-anchor="start" x="81.7" y="-241.4" font-family="Arial Bold" font-size="18.00">public.rooms</text>
<text text-anchor="start" x="176.19" y="-241.4" font-family="Arial" font-size="14.00">    </text>
<text text-anchor="start" x="207.31" y="-241.4" font-family="Arial" font-size="14.00" fill="#666666">[BASE TABLE]</text>
<polygon fill="none" stroke="black" points="66.3,-197.2 66.3,-228 316.07,-228 316.07,-197.2 66.3,-197.2"/>
<text text-anchor="start" x="73.3" y="-209.4" font-family="Arial" font-size="14.00">id </text>
<text text-anchor="start" x="88.09" y="-209.4" font-family="Arial" font-size="14.00" fill="#666666">[text]</text>
<polygon fill="none" stroke="black" points="66.3,-166.4 66.3,-197.2 316.07,-197.2 316.07,-166.4 66.3,-166.4"/>
<text text-anchor="start" x="73.3" y="-178.6" font-family="Arial" font-size="14.00">name </text>
<text text-anchor="start" x="112.21" y="-178.6" font-family="Arial" font-size="14.00" fill="#666666">[text]</text>
<polygon fill="none" stroke="black" points="66.3,-135.6 66.3,-166.4 316.07,-166.4 316.07,-135.6 66.3,-135.6"/>
<text text-anchor="start" x="73.3" y="-147.8" font-family="Arial" font-size="14.00">mode </text>
<text text-anchor="start" x="112.21" y="-147.8" font-family="Arial" font-size="14.00" fill="#666666">[text]</text>
<polygon fill="none" stroke="black" points="66.3,-104.8 66.3,-135.6 316.07,-135.6 316.07,-104.8 66.3,-104.8"/>
<text text-anchor="start" x="73.3" y="-117" font-family="Arial" font-size="14.00">host_id </text>
<text text-anchor="start" x="122.34" y="-117" font-family="Arial" font-size="14.00" fill="#666666">[text]</text>
<polygon fill="none" stroke="black" points="66.3,-74 66.3,-104.8 316.07,-104.8 316.07,-74 66.3,-74"/>
<text text-anchor="start" x="73.3" y="-86.2" font-family="Arial" font-size="14.00">admin_password_hash </text>
<text text-anchor="start" x="221.17" y="-86.2" font-family="Arial" font-size="14.00" fill="#666666">[text]</text>
<polygon fill="none" stroke="black" points="66.3,-43.2 66.3,-74 316.07,-74 316.07,-43.2 66.3,-43.2"/>
<text text-anchor="start" x="73.3" y="-55.4" font-family="Arial" font-size="14.00">created_at </text>
<text text-anchor="start" x="143.35" y="-55.4" font-family="Arial" font-size="14.00" fill="#666666">[timestamp with time zone]</text>
</g>
<!-- public.room_settings&#45;&gt;public.rooms -->
<g id="edge1" class="edge">
<title>public.room_settings:room_id&#45;&gt;public.rooms:id</title>
<path fill="none" stroke="black" d="M347.44,-679.99C440.02,-650.09 417.83,-212.6 317.07,-212.6"/>
<polygon fill="black" stroke="black" points="347.39,-680 336.81,-677.1 342.12,-680.83 337.84,-681.5 337.84,-681.5 337.84,-681.5 342.12,-680.83 338.2,-685.99 347.39,-680"/>
<text text-anchor="start" x="344.18" y="-691.6" font-family="Arial" font-size="10.00">FOREIGN KEY (room_id) REFERENCES rooms(id) ON DELETE CASCADE</text>
</g>
</g>
</svg>
