<?xml version="1.0" encoding="UTF-8" standalone="no"?>
<!DOCTYPE svg PUBLIC "-//W3C//DTD SVG 1.1//EN"
 "http://www.w3.org/Graphics/SVG/1.1/DTD/svg11.dtd">
<!-- Generated by graphviz version 12.1.2 (20240928.0832)
 -->
<!-- Title: public.songs Pages: 1 -->
<svg width="889pt" height="1130pt"
 viewBox="0.00 0.00 888.56 1129.60" xmlns="http://www.w3.org/2000/svg" xmlns:xlink="http://www.w3.org/1999/xlink">
<g id="graph0" class="graph" transform="scale(1 1) rotate(0) translate(4 1125.6)">
<title>public.songs</title>
<polygon fill="white" stroke="none" points="-4,4 -4,-1125.6 884.56,-1125.6 884.56,4 -4,4"/>
<!-- public.songs -->
<g id="node1" class="node">
<title>public.songs</title>
<polygon fill="#efefef" stroke="none" points="282.93,-758.6 282.93,-794.2 524.94,-794.2 524.94,-758.6 282.93,-758.6"/>
<polygon fill="none" stroke="black" points="282.93,-758.6 282.93,-794.2 524.94,-794.2 524.94,-758.6 282.93,-758.6"/>
<text text-anchor="start" x="296.44" y="-772" font-family="Arial Bold" font-size="18.00">public.songs</text>
<text text-anchor="start" x="386.94" y="-772" font-family="Arial" font-size="14.00">    </text>
<text text-anchor="start" x="418.06" y="-772" font-family="Arial" font-size="14.00" fill="#666666">[BASE TABLE]</text>
<polygon fill="none" stroke="black" points="282.93,-727.8 282.93,-758.6 524.94,-758.6 524.94,-727.8 282.93,-727.8"/>
<text text-anchor="start" x="289.93" y="-740" font-family="Arial" font-size="14.00">id </text>
<text text-anchor="start" x="304.72" y="-740" font-family="Arial" font-size="14.00" fill="#666666">[text]</text>
<polygon fill="none" stroke="black" points="282.93,-697 282.93,-727.8 524.94,-727.8 524.94,-697 282.93,-697"/>
<text text-anchor="start" x="289.93" y="-709.2" font-family="Arial" font-size="14.00">room_id </text>
<text text-anchor="start" x="344.4" y="-709.2" font-family="Arial" font-size="14.00" fill="#666666">[text]</text>
<polygon fill="none" stroke="black" points="282.93,-666.2 282.93,-697 524.94,-697 524.94,-666.2 282.93,-666.2"/>
<text text-anchor="start" x="289.93" y="-678.4" font-family="Arial" font-size="14.00">source_type </text>
<text text-anchor="start" x="370.09" y="-678.4" font-family="Arial" font-size="14.00" fill="#666666">[text]</text>
<polygon fill="none" stroke="black" points="282.93,-635.4 282.93,-666.2 524.94,-666.2 524.94,-635.4 282.93,-635.4"/>
<text text-anchor="start" x="289.93" y="-647.6" font-family="Arial" font-size="14.00">source_id </text>
<text text-anchor="start" x="354.52" y="-647.6" font-family="Arial" font-size="14.00" fill="#666666">[text]</text>
<polygon fill="none" stroke="black" points="282.93,-604.6 282.93,-635.4 524.94,-635.4 524.94,-604.6 282.93,-604.6"/>
<text text-anchor="start" x="289.93" y="-616.8" font-family="Arial" font-size="14.00">title </text>
<text text-anchor="start" x="315.6" y="-616.8" font-family="Arial" font-size="14.00" fill="#666666">[text]</text>
<polygon fill="none" stroke="black" points="282.93,-573.8 282.93,-604.6 524.94,-604.6 524.94,-573.8 282.93,-573.8"/>
<text text-anchor="start" x="289.93" y="-586" font-family="Arial" font-size="14.00">artist </text>
<text text-anchor="start" x="324.16" y="-586" font-family="Arial" font-size="14.00" fill="#666666">[text]</text>
<polygon fill="none" stroke="black" points="282.93,-543 282.93,-573.8 524.94,-573.8 524.94,-543 282.93,-543"/>
<text text-anchor="start" x="289.93" y="-555.2" font-family="Arial" font-size="14.00">thumbnail_url </text>
<text text-anchor="start" x="377.87" y="-555.2" font-family="Arial" font-size="14.00" fill="#666666">[text]</text>
<polygon fill="none" stroke="black" points="282.93,-512.2 282.93,-543 524.94,-543 524.94,-512.2 282.93,-512.2"/>
<text text-anchor="start" x="289.93" y="-524.4" font-family="Arial" font-size="14.00">duration </text>
<text text-anchor="start" x="344.41" y="-524.4" font-family="Arial" font-size="14.00" fill="#666666">[integer]</text>
<polygon fill="none" stroke="black" points="282.93,-481.4 282.93,-512.2 524.94,-512.2 524.94,-481.4 282.93,-481.4"/>
<text text-anchor="start" x="289.93" y="-493.6" font-family="Arial" font-size="14.00">added_by </text>
<text text-anchor="start" x="355.32" y="-493.6" font-family="Arial" font-size="14.00" fill="#666666">[text]</text>
<polygon fill="none" stroke="black" points="282.93,-450.6 282.93,-481.4 524.94,-481.4 524.94,-450.6 282.93,-450.6"/>
<text text-anchor="start" x="289.93" y="-462.8" font-family="Arial" font-size="14.00">added_by_nickname </text>
<text text-anchor="start" x="423.02" y="-462.8" font-family="Arial" font-size="14.00" fill="#666666">[text]</text>
<polygon fill="none" stroke="black" points="282.93,-419.8 282.93,-450.6 524.94,-450.6 524.94,-419.8 282.93,-419.8"/>
<text text-anchor="start" x="289.93" y="-432" font-family="Arial" font-size="14.00">added_at </text>
<text text-anchor="start" x="352.21" y="-432" font-family="Arial" font-size="14.00" fill="#666666">[timestamp with time zone]</text>
<polygon fill="none" stroke="black" points="282.93,-389 282.93,-419.8 524.94,-419.8 524.94,-389 282.93,-389"/>
<text text-anchor="start" x="289.93" y="-401.2" font-family="Arial" font-size="14.00">position </text>
<text text-anchor="start" x="342.07" y="-401.2" font-family="Arial" font-size="14.00" fill="#666666">[integer]</text>
<polygon fill="none" stroke="black" stroke-width="3" points="281.43,-387.5 281.43,-795.7 526.44,-795.7 526.44,-387.5 281.43,-387.5"/>
</g>
<!-- public.rooms -->
<g id="node4" class="node">
<title>public.rooms</title>
<polygon fill="#efefef" stroke="none" points="279.05,-228 279.05,-263.6 528.82,-263.6 528.82,-228 279.05,-228"/>
<polygon fill="none" stroke="black" points="279.05,-228 279.05,-263.6 528.82,-263.6 528.82,-228 279.05,-228"/>
<text text-anchor="start" x="294.44" y="-241.4" font-family="Arial Bold" font-size="18.00">public.rooms</text>
<text text-anchor="start" x="388.93" y="-241.4" font-family="Arial" font-size="14.00">    </text>
<text text-anchor="start" x="420.05" y="-241.4" font-family="Arial" font-size="14.00" fill="#666666">[BASE TABLE]</text>
<polygon fill="none" stroke="black" points="279.05,-197.2 279.05,-228 528.82,-228 528.82,-197.2 279.05,-197.2"/>
<text text-anchor="start" x="286.05" y="-209.4" font-family="Arial" font-size="14.00">id </text>
<text text-anchor="start" x="300.83" y="-209.4" font-family="Arial" font-size="14.00" fill="#666666">[text]</text>
<polygon fill="none" stroke="black" points="279.05,-166.4 279.05,-197.2 528.82,-197.2 528.82,-166.4 279.05,-166.4"/>
<text text-anchor="start" x="286.05" y="-178.6" font-family="Arial" font-size="14.00">name </text>
<text text-anchor="start" x="324.96" y="-178.6" font-family="Arial" font-size="14.00" fill="#666666">[text]</text>
<polygon fill="none" stroke="black" points="279.05,-135.6 279.05,-166.4 528.82,-166.4 528.82,-135.6 279.05,-135.6"/>
<text text-anchor="start" x="286.05" y="-147.8" font-family="Arial" font-size="14.00">mode </text>
<text text-anchor="start" x="324.96" y="-147.8" font-family="Arial" font-size="14.00" fill="#666666">[text]</text>
<polygon fill="none" stroke="black" points="279.05,-104.8 279.05,-135.6 528.82,-135.6 528.82,-104.8 279.05,-104.8"/>
<text text-anchor="start" x="286.05" y="-117" font-family="Arial" font-size="14.00">host_id </text>
<text text-anchor="start" x="335.08" y="-117" font-family="Arial" font-size="14.00" fill="#666666">[text]</text>
<polygon fill="none" stroke="black" points="279.05,-74 279.05,-104.8 528.82,-104.8 528.82,-74 279.05,-74"/>
<text text-anchor="start" x="286.05" y="-86.2" font-family="Arial" font-size="14.00">admin_password_hash </text>
<text text-anchor="start" x="433.91" y="-86.2" font-family="Arial" font-size="14.00" fill="#666666">[text]</text>
<polygon fill="none" stroke="black" points="279.05,-43.2 279.05,-74 528.82,-74 528.82,-43.2 279.05,-43.2"/>
<text text-anchor="start" x="286.05" y="-55.4" font-family="Arial" font-size="14.00">created_at </text>
<text text-anchor="start" x="356.09" y="-55.4" font-family="Arial" font-size="14.00" fill="#666666">[timestamp with time zone]</text>
</g>
<!-- public.songs&#45;&gt;public.rooms -->
<g id="edge3" class="edge">
<title>public.songs:room_id&#45;&gt;public.rooms:id</title>
<path fill="none" stroke="black" d="M536.19,-712.04C748.14,-696.9 748.49,-212.6 529.82,-212.6"/>
<polygon fill="black" stroke="black" points="536.26,-712.03 526.11,-707.89 530.93,-712.22 526.6,-712.38 526.6,-712.38 526.6,-712.38 530.93,-712.22 526.43,-716.89 536.26,-712.03"/>
<text text-anchor="start" x="532.94" y="-722.4" font-family="Arial" font-size="10.00">FOREIGN KEY (room_id) REFERENCES rooms(id) ON DELETE CASCADE</text>
</g>
<!-- public.skip_votes -->
<g id="node2" class="node">
<title>public.skip_votes</title>
<polygon fill="#efefef" stroke="none" points="86.44,-1042.8 86.44,-1078.4 351.42,-1078.4 351.42,-1042.8 86.44,-1042.8"/>
<polygon fill="none" stroke="black" points="86.44,-1042.8 86.44,-1078.4 351.42,-1078.4 351.42,-1042.8 86.44,-1042.8"/>
<text text-anchor="start" x="93.44" y="-1056.2" font-family="Arial Bold" font-size="18.00">public.skip_votes</text>
<text text-anchor="start" x="219.93" y="-1056.2" font-family="Arial" font-size="14.00">    </text>
<text text-anchor="start" x="251.05" y="-1056.2" font-family="Arial" font-size="14.00" fill="#666666">[BASE TABLE]</text>
<polygon fill="none" stroke="black" points="86.44,-1012 86.44,-1042.8 351.42,-1042.8 351.42,-1012 86.44,-1012"/>
<text text-anchor="start" x="93.44" y="-1024.2" font-family="Arial" font-size="14.00">room_id </text>
<text text-anchor="start" x="147.91" y="-1024.2" font-family="Arial" font-size="14.00" fill="#666666">[text]</text>
<polygon fill="none" stroke="black" points="86.44,-981.2 86.44,-1012 351.42,-1012 351.42,-981.2 86.44,-981.2"/>
<text text-anchor="start" x="93.44" y="-993.4" font-family="Arial" font-size="14.00">song_id </text>
<text text-anchor="start" x="146.37" y="-993.4" font-family="Arial" font-size="14.00" fill="#666666">[text]</text>
<polygon fill="none" stroke="black" points="86.44,-950.4 86.44,-981.2 351.42,-981.2 351.42,-950.4 86.44,-950.4"/>
<text text-anchor="start" x="93.44" y="-962.6" font-family="Arial" font-size="14.00">user_id </text>
<text text-anchor="start" x="143.25" y="-962.6" font-family="Arial" font-size="14.00" fill="#666666">[text]</text>
<polygon fill="none" stroke="black" points="86.44,-919.6 86.44,-950.4 351.42,-950.4 351.42,-919.6 86.44,-919.6"/>
<text text-anchor="start" x="93.44" y="-931.8" font-family="Arial" font-size="14.00">created_at </text>
<text text-anchor="start" x="163.49" y="-931.8" font-family="Arial" font-size="14.00" fill="#666666">[timestamp with time zone]</text>
</g>
<!-- public.skip_votes&#45;&gt;public.songs -->
<g id="edge1" class="edge">
<title>public.skip_votes:song_id&#45;&gt;public.songs:id</title>
<path fill="none" stroke="black" d="M362.53,-995.53C402.1,-986.25 377.28,-918.81 351.42,-876.4 333.52,-847.04 300.86,-869.74 282.93,-840.4 260.4,-803.54 238.73,-743.2 281.93,-743.2"/>
<polygon fill="black" stroke="black" points="362.7,-995.51 352.28,-992.09 357.4,-996.07 353.09,-996.53 353.09,-996.53 353.09,-996.53 357.4,-996.07 353.23,-1001.04 362.7,-995.51"/>
<text text-anchor="start" x="7" y="-1006.6" font-family="Arial" font-size="10.00">FOREIGN KEY (song_id) REFERENCES songs(id) ON DELETE CASCADE</text>
</g>
<!-- public.song_votes -->
<g id="node3" class="node">
<title>public.song_votes</title>
<polygon fill="#efefef" stroke="none" points="455.44,-1042.8 455.44,-1078.4 724.42,-1078.4 724.42,-1042.8 455.44,-1042.8"/>
<polygon fill="none" stroke="black" points="455.44,-1042.8 455.44,-1078.4 724.42,-1078.4 724.42,-1042.8 455.44,-1042.8"/>
<text text-anchor="start" x="462.44" y="-1056.2" font-family="Arial Bold" font-size="18.00">public.song_votes</text>
<text text-anchor="start" x="592.93" y="-1056.2" font-family="Arial" font-size="14.00">    </text>
<text text-anchor="start" x="624.05" y="-1056.2" font-family="Arial" font-size="14.00" fill="#666666">[BASE TABLE]</text>
<polygon fill="none" stroke="black" points="455.44,-1012 455.44,-1042.8 724.42,-1042.8 724.42,-1012 455.44,-1012"/>
<text text-anchor="start" x="462.44" y="-1024.2" font-family="Arial" font-size="14.00">room_id </text>
<text text-anchor="start" x="516.91" y="-1024.2" font-family="Arial" font-size="14.00" fill="#666666">[text]</text>
<polygon fill="none" stroke="black" points="455.44,-981.2 455.44,-1012 724.42,-1012 724.42,-981.2 455.44,-981.2"/>
<text text-anchor="start" x="462.44" y="-993.4" font-family="Arial" font-size="14.00">song_id </text>
<text text-anchor="start" x="515.37" y="-993.4" font-family="Arial" font-size="14.00" fill="#666666">[text]</text>
<polygon fill="none" stroke="black" points="455.44,-950.4 455.44,-981.2 724.42,-981.2 724.42,-950.4 455.44,-950.4"/>
<text text-anchor="start" x="462.44" y="-962.6" font-family="Arial" font-size="14.00">user_id </text>
<text text-anchor="start" x="512.25" y="-962.6" font-family="Arial" font-size="14.00" fill="#666666">[text]</text>
<polygon fill="none" stroke="black" points="455.44,-919.6 455.44,-950.4 724.42,-950.4 724.42,-919.6 455.44,-919.6"/>
<text text-anchor="start" x="462.44" y="-931.8" font-family="Arial" font-size="14.00">created_at </text>
<text text-anchor="start" x="532.49" y="-931.8" font-family="Arial" font-size="14.00" fill="#666666">[timestamp with time zone]</text>
</g>
<!-- public.song_votes&#45;&gt;public.songs -->
<g id="edge2" class="edge">
<title>public.song_votes:song_id&#45;&gt;public.songs:id</title>
<path fill="none" stroke="black" d="M444.33,-995.53C404.75,-986.24 429.46,-918.73 455.44,-876.4 473.64,-846.76 506.71,-870.03 524.94,-840.4 547.57,-803.6 569.14,-743.2 525.94,-743.2"/>
<polygon fill="black" stroke="black" points="444.16,-995.51 453.64,-1001.04 449.47,-996.07 453.78,-996.53 453.78,-996.53 453.78,-996.53 449.47,-996.07 454.58,-992.09 444.16,-995.51"/>
<text text-anchor="start" x="461.44" y="-1006.6" font-family="Arial" font-size="10.00">FOREIGN KEY (song_id) REFERENCES songs(id) ON DELETE CASCADE</text>
</g>
</g>
</svg>
