<?xml version="1.0" encoding="UTF-8" standalone="no"?>
<!DOCTYPE svg PUBLIC "-//W3C//DTD SVG 1.1//EN"
 "http://www.w3.org/Graphics/SVG/1.1/DTD/svg11.dtd">
<!-- Generated by graphviz version 12.1.2 (20240928.0832)
 -->
<!-- Title: vibes_docs_20260707232657 Pages: 1 -->
<svg width="2332pt" height="1278pt"
 viewBox="0.00 0.00 2332.36 1277.60" xmlns="http://www.w3.org/2000/svg" xmlns:xlink="http://www.w3.org/1999/xlink">
<g id="graph0" class="graph" transform="scale(1 1) rotate(0) translate(4 1273.6)">
<title>vibes_docs_20260707232657</title>
<polygon fill="white" stroke="none" points="-4,4 -4,-1273.6 2328.36,-1273.6 2328.36,4 -4,4"/>
<!-- public.migrations -->
<g id="node1" class="node">
<title>public.migrations</title>
<polygon fill="#efefef" stroke="none" points="43.2,-1113.8 43.2,-1149.4 308.17,-1149.4 308.17,-1113.8 43.2,-1113.8"/>
<polygon fill="none" stroke="black" points="43.2,-1113.8 43.2,-1149.4 308.17,-1149.4 308.17,-1113.8 43.2,-1113.8"/>
<text text-anchor="start" x="50.2" y="-1127.2" font-family="Arial Bold" font-size="18.00">public.migrations</text>
<text text-anchor="start" x="176.68" y="-1127.2" font-family="Arial" font-size="14.00">    </text>
<text text-anchor="start" x="207.8" y="-1127.2" font-family="Arial" font-size="14.00" fill="#666666">[BASE TABLE]</text>
<polygon fill="none" stroke="black" points="43.2,-1083 43.2,-1113.8 308.17,-1113.8 308.17,-1083 43.2,-1083"/>
<text text-anchor="start" x="50.2" y="-1095.2" font-family="Arial" font-size="14.00">id </text>
<text text-anchor="start" x="64.99" y="-1095.2" font-family="Arial" font-size="14.00" fill="#666666">[integer]</text>
<polygon fill="none" stroke="black" points="43.2,-1052.2 43.2,-1083 308.17,-1083 308.17,-1052.2 43.2,-1052.2"/>
<text text-anchor="start" x="50.2" y="-1064.4" font-family="Arial" font-size="14.00">version </text>
<text text-anchor="start" x="99.22" y="-1064.4" font-family="Arial" font-size="14.00" fill="#666666">[integer]</text>
<polygon fill="none" stroke="black" points="43.2,-1021.4 43.2,-1052.2 308.17,-1052.2 308.17,-1021.4 43.2,-1021.4"/>
<text text-anchor="start" x="50.2" y="-1033.6" font-family="Arial" font-size="14.00">dirty </text>
<text text-anchor="start" x="80.54" y="-1033.6" font-family="Arial" font-size="14.00" fill="#666666">[boolean]</text>
<polygon fill="none" stroke="black" points="43.2,-990.6 43.2,-1021.4 308.17,-1021.4 308.17,-990.6 43.2,-990.6"/>
<text text-anchor="start" x="50.2" y="-1002.8" font-family="Arial" font-size="14.00">applied_at </text>
<text text-anchor="start" x="118.7" y="-1002.8" font-family="Arial" font-size="14.00" fill="#666666">[timestamp with time zone]</text>
</g>
<!-- public.rooms -->
<g id="node2" class="node">
<title>public.rooms</title>
<polygon fill="#efefef" stroke="none" points="703.8,-228 703.8,-263.6 953.57,-263.6 953.57,-228 703.8,-228"/>
<polygon fill="none" stroke="black" points="703.8,-228 703.8,-263.6 953.57,-263.6 953.57,-228 703.8,-228"/>
<text text-anchor="start" x="719.2" y="-241.4" font-family="Arial Bold" font-size="18.00">public.rooms</text>
<text text-anchor="start" x="813.69" y="-241.4" font-family="Arial" font-size="14.00">    </text>
<text text-anchor="start" x="844.8" y="-241.4" font-family="Arial" font-size="14.00" fill="#666666">[BASE TABLE]</text>
<polygon fill="none" stroke="black" points="703.8,-197.2 703.8,-228 953.57,-228 953.57,-197.2 703.8,-197.2"/>
<text text-anchor="start" x="710.8" y="-209.4" font-family="Arial" font-size="14.00">id </text>
<text text-anchor="start" x="725.59" y="-209.4" font-family="Arial" font-size="14.00" fill="#666666">[text]</text>
<polygon fill="none" stroke="black" points="703.8,-166.4 703.8,-197.2 953.57,-197.2 953.57,-166.4 703.8,-166.4"/>
<text text-anchor="start" x="710.8" y="-178.6" font-family="Arial" font-size="14.00">name </text>
<text text-anchor="start" x="749.71" y="-178.6" font-family="Arial" font-size="14.00" fill="#666666">[text]</text>
<polygon fill="none" stroke="black" points="703.8,-135.6 703.8,-166.4 953.57,-166.4 953.57,-135.6 703.8,-135.6"/>
<text text-anchor="start" x="710.8" y="-147.8" font-family="Arial" font-size="14.00">mode </text>
<text text-anchor="start" x="749.71" y="-147.8" font-family="Arial" font-size="14.00" fill="#666666">[text]</text>
<polygon fill="none" stroke="black" points="703.8,-104.8 703.8,-135.6 953.57,-135.6 953.57,-104.8 703.8,-104.8"/>
<text text-anchor="start" x="710.8" y="-117" font-family="Arial" font-size="14.00">host_id </text>
<text text-anchor="start" x="759.83" y="-117" font-family="Arial" font-size="14.00" fill="#666666">[text]</text>
<polygon fill="none" stroke="black" points="703.8,-74 703.8,-104.8 953.57,-104.8 953.57,-74 703.8,-74"/>
<text text-anchor="start" x="710.8" y="-86.2" font-family="Arial" font-size="14.00">admin_password_hash </text>
<text text-anchor="start" x="858.67" y="-86.2" font-family="Arial" font-size="14.00" fill="#666666">[text]</text>
<polygon fill="none" stroke="black" points="703.8,-43.2 703.8,-74 953.57,-74 953.57,-43.2 703.8,-43.2"/>
<text text-anchor="start" x="710.8" y="-55.4" font-family="Arial" font-size="14.00">created_at </text>
<text text-anchor="start" x="780.85" y="-55.4" font-family="Arial" font-size="14.00" fill="#666666">[timestamp with time zone]</text>
</g>
<!-- public.room_settings -->
<g id="node3" class="node">
<title>public.room_settings</title>
<polygon fill="#efefef" stroke="none" points="179.7,-724.8 179.7,-760.4 469.68,-760.4 469.68,-724.8 179.7,-724.8"/>
<polygon fill="none" stroke="black" points="179.7,-724.8 179.7,-760.4 469.68,-760.4 469.68,-724.8 179.7,-724.8"/>
<text text-anchor="start" x="186.7" y="-738.2" font-family="Arial Bold" font-size="18.00">public.room_settings</text>
<text text-anchor="start" x="338.19" y="-738.2" font-family="Arial" font-size="14.00">    </text>
<text text-anchor="start" x="369.3" y="-738.2" font-family="Arial" font-size="14.00" fill="#666666">[BASE TABLE]</text>
<polygon fill="none" stroke="black" points="179.7,-694 179.7,-724.8 469.68,-724.8 469.68,-694 179.7,-694"/>
<text text-anchor="start" x="186.7" y="-706.2" font-family="Arial" font-size="14.00">room_id </text>
<text text-anchor="start" x="241.17" y="-706.2" font-family="Arial" font-size="14.00" fill="#666666">[text]</text>
<polygon fill="none" stroke="black" points="179.7,-663.2 179.7,-694 469.68,-694 469.68,-663.2 179.7,-663.2"/>
<text text-anchor="start" x="186.7" y="-675.4" font-family="Arial" font-size="14.00">skip_allowed </text>
<text text-anchor="start" x="270.75" y="-675.4" font-family="Arial" font-size="14.00" fill="#666666">[integer]</text>
<polygon fill="none" stroke="black" points="179.7,-632.4 179.7,-663.2 469.68,-663.2 469.68,-632.4 179.7,-632.4"/>
<text text-anchor="start" x="186.7" y="-644.6" font-family="Arial" font-size="14.00">democratic_skip </text>
<text text-anchor="start" x="291.74" y="-644.6" font-family="Arial" font-size="14.00" fill="#666666">[integer]</text>
<polygon fill="none" stroke="black" points="179.7,-601.6 179.7,-632.4 469.68,-632.4 469.68,-601.6 179.7,-601.6"/>
<text text-anchor="start" x="186.7" y="-613.8" font-family="Arial" font-size="14.00">skip_vote_threshold </text>
<text text-anchor="start" x="315.11" y="-613.8" font-family="Arial" font-size="14.00" fill="#666666">[real]</text>
<polygon fill="none" stroke="black" points="179.7,-570.8 179.7,-601.6 469.68,-601.6 469.68,-570.8 179.7,-570.8"/>
<text text-anchor="start" x="186.7" y="-583" font-family="Arial" font-size="14.00">max_continuous_adds </text>
<text text-anchor="start" x="330.68" y="-583" font-family="Arial" font-size="14.00" fill="#666666">[integer]</text>
<polygon fill="none" stroke="black" points="179.7,-540 179.7,-570.8 469.68,-570.8 469.68,-540 179.7,-540"/>
<text text-anchor="start" x="186.7" y="-552.2" font-family="Arial" font-size="14.00">remove_on_play </text>
<text text-anchor="start" x="294.1" y="-552.2" font-family="Arial" font-size="14.00" fill="#666666">[integer]</text>
<polygon fill="none" stroke="black" points="179.7,-509.2 179.7,-540 469.68,-540 469.68,-509.2 179.7,-509.2"/>
<text text-anchor="start" x="186.7" y="-521.4" font-family="Arial" font-size="14.00">loop_queue </text>
<text text-anchor="start" x="263.77" y="-521.4" font-family="Arial" font-size="14.00" fill="#666666">[integer]</text>
<polygon fill="none" stroke="black" points="179.7,-478.4 179.7,-509.2 469.68,-509.2 469.68,-478.4 179.7,-478.4"/>
<text text-anchor="start" x="186.7" y="-490.6" font-family="Arial" font-size="14.00">allow_duplicates </text>
<text text-anchor="start" x="293.32" y="-490.6" font-family="Arial" font-size="14.00" fill="#666666">[integer]</text>
<polygon fill="none" stroke="black" points="179.7,-447.6 179.7,-478.4 469.68,-478.4 469.68,-447.6 179.7,-447.6"/>
<text text-anchor="start" x="186.7" y="-459.8" font-family="Arial" font-size="14.00">enabled_sources </text>
<text text-anchor="start" x="297.22" y="-459.8" font-family="Arial" font-size="14.00" fill="#666666">[text]</text>
<polygon fill="none" stroke="black" points="179.7,-416.8 179.7,-447.6 469.68,-447.6 469.68,-416.8 179.7,-416.8"/>
<text text-anchor="start" x="186.7" y="-429" font-family="Arial" font-size="14.00">only_admin_add_songs </text>
<text text-anchor="start" x="338.48" y="-429" font-family="Arial" font-size="14.00" fill="#666666">[integer]</text>
</g>
<!-- public.room_settings&#45;&gt;public.rooms -->
<g id="edge1" class="edge">
<title>public.room_settings:room_id&#45;&gt;public.rooms:id</title>
<path fill="none" stroke="black" d="M480.89,-707.66C547.12,-683.26 486.02,-410.19 526.69,-342.8 576.97,-259.46 605.46,-212.6 702.8,-212.6"/>
<polygon fill="black" stroke="black" points="480.86,-707.66 470.25,-704.91 475.6,-708.56 471.33,-709.29 471.33,-709.29 471.33,-709.29 475.6,-708.56 471.76,-713.78 480.86,-707.66"/>
<text text-anchor="start" x="477.68" y="-719.4" font-family="Arial" font-size="10.00">FOREIGN KEY (room_id) REFERENCES rooms(id) ON DELETE CASCADE</text>
</g>
<!-- public.songs -->
<g id="node4" class="node">
<title>public.songs</title>
<polygon fill="#efefef" stroke="none" points="611.68,-755.6 611.68,-791.2 853.69,-791.2 853.69,-755.6 611.68,-755.6"/>
<polygon fill="none" stroke="black" points="611.68,-755.6 611.68,-791.2 853.69,-791.2 853.69,-755.6 611.68,-755.6"/>
<text text-anchor="start" x="625.19" y="-769" font-family="Arial Bold" font-size="18.00">public.songs</text>
<text text-anchor="start" x="715.69" y="-769" font-family="Arial" font-size="14.00">    </text>
<text text-anchor="start" x="746.81" y="-769" font-family="Arial" font-size="14.00" fill="#666666">[BASE TABLE]</text>
<polygon fill="none" stroke="black" points="611.68,-724.8 611.68,-755.6 853.69,-755.6 853.69,-724.8 611.68,-724.8"/>
<text text-anchor="start" x="618.68" y="-737" font-family="Arial" font-size="14.00">id </text>
<text text-anchor="start" x="633.47" y="-737" font-family="Arial" font-size="14.00" fill="#666666">[text]</text>
<polygon fill="none" stroke="black" points="611.68,-694 611.68,-724.8 853.69,-724.8 853.69,-694 611.68,-694"/>
<text text-anchor="start" x="618.68" y="-706.2" font-family="Arial" font-size="14.00">room_id </text>
<text text-anchor="start" x="673.15" y="-706.2" font-family="Arial" font-size="14.00" fill="#666666">[text]</text>
<polygon fill="none" stroke="black" points="611.68,-663.2 611.68,-694 853.69,-694 853.69,-663.2 611.68,-663.2"/>
<text text-anchor="start" x="618.68" y="-675.4" font-family="Arial" font-size="14.00">source_type </text>
<text text-anchor="start" x="698.84" y="-675.4" font-family="Arial" font-size="14.00" fill="#666666">[text]</text>
<polygon fill="none" stroke="black" points="611.68,-632.4 611.68,-663.2 853.69,-663.2 853.69,-632.4 611.68,-632.4"/>
<text text-anchor="start" x="618.68" y="-644.6" font-family="Arial" font-size="14.00">source_id </text>
<text text-anchor="start" x="683.28" y="-644.6" font-family="Arial" font-size="14.00" fill="#666666">[text]</text>
<polygon fill="none" stroke="black" points="611.68,-601.6 611.68,-632.4 853.69,-632.4 853.69,-601.6 611.68,-601.6"/>
<text text-anchor="start" x="618.68" y="-613.8" font-family="Arial" font-size="14.00">title </text>
<text text-anchor="start" x="644.36" y="-613.8" font-family="Arial" font-size="14.00" fill="#666666">[text]</text>
<polygon fill="none" stroke="black" points="611.68,-570.8 611.68,-601.6 853.69,-601.6 853.69,-570.8 611.68,-570.8"/>
<text text-anchor="start" x="618.68" y="-583" font-family="Arial" font-size="14.00">artist </text>
<text text-anchor="start" x="652.91" y="-583" font-family="Arial" font-size="14.00" fill="#666666">[text]</text>
<polygon fill="none" stroke="black" points="611.68,-540 611.68,-570.8 853.69,-570.8 853.69,-540 611.68,-540"/>
<text text-anchor="start" x="618.68" y="-552.2" font-family="Arial" font-size="14.00">thumbnail_url </text>
<text text-anchor="start" x="706.62" y="-552.2" font-family="Arial" font-size="14.00" fill="#666666">[text]</text>
<polygon fill="none" stroke="black" points="611.68,-509.2 611.68,-540 853.69,-540 853.69,-509.2 611.68,-509.2"/>
<text text-anchor="start" x="618.68" y="-521.4" font-family="Arial" font-size="14.00">duration </text>
<text text-anchor="start" x="673.17" y="-521.4" font-family="Arial" font-size="14.00" fill="#666666">[integer]</text>
<polygon fill="none" stroke="black" points="611.68,-478.4 611.68,-509.2 853.69,-509.2 853.69,-478.4 611.68,-478.4"/>
<text text-anchor="start" x="618.68" y="-490.6" font-family="Arial" font-size="14.00">added_by </text>
<text text-anchor="start" x="684.08" y="-490.6" font-family="Arial" font-size="14.00" fill="#666666">[text]</text>
<polygon fill="none" stroke="black" points="611.68,-447.6 611.68,-478.4 853.69,-478.4 853.69,-447.6 611.68,-447.6"/>
<text text-anchor="start" x="618.68" y="-459.8" font-family="Arial" font-size="14.00">added_by_nickname </text>
<text text-anchor="start" x="751.78" y="-459.8" font-family="Arial" font-size="14.00" fill="#666666">[text]</text>
<polygon fill="none" stroke="black" points="611.68,-416.8 611.68,-447.6 853.69,-447.6 853.69,-416.8 611.68,-416.8"/>
<text text-anchor="start" x="618.68" y="-429" font-family="Arial" font-size="14.00">added_at </text>
<text text-anchor="start" x="680.97" y="-429" font-family="Arial" font-size="14.00" fill="#666666">[timestamp with time zone]</text>
<polygon fill="none" stroke="black" points="611.68,-386 611.68,-416.8 853.69,-416.8 853.69,-386 611.68,-386"/>
<text text-anchor="start" x="618.68" y="-398.2" font-family="Arial" font-size="14.00">position </text>
<text text-anchor="start" x="670.83" y="-398.2" font-family="Arial" font-size="14.00" fill="#666666">[integer]</text>
</g>
<!-- public.songs&#45;&gt;public.rooms -->
<g id="edge2" class="edge">
<title>public.songs:room_id&#45;&gt;public.rooms:id</title>
<path fill="none" stroke="black" d="M864.57,-707.77C933.38,-683.83 902.04,-403.96 853.69,-342.8 811.2,-289.05 746.5,-360.38 703.8,-306.8 677.71,-274.06 660.93,-212.6 702.8,-212.6"/>
<polygon fill="black" stroke="black" points="864.89,-707.71 854.29,-704.91 859.62,-708.58 855.35,-709.29 855.35,-709.29 855.35,-709.29 859.62,-708.58 855.75,-713.79 864.89,-707.71"/>
<text text-anchor="start" x="861.69" y="-719.4" font-family="Arial" font-size="10.00">FOREIGN KEY (room_id) REFERENCES rooms(id) ON DELETE CASCADE</text>
</g>
<!-- public.playback_state -->
<g id="node5" class="node">
<title>public.playback_state</title>
<polygon fill="#efefef" stroke="none" points="996.22,-647.8 996.22,-683.4 1291.15,-683.4 1291.15,-647.8 996.22,-647.8"/>
<polygon fill="none" stroke="black" points="996.22,-647.8 996.22,-683.4 1291.15,-683.4 1291.15,-647.8 996.22,-647.8"/>
<text text-anchor="start" x="1003.22" y="-661.2" font-family="Arial Bold" font-size="18.00">public.playback_state</text>
<text text-anchor="start" x="1159.66" y="-661.2" font-family="Arial" font-size="14.00">    </text>
<text text-anchor="start" x="1190.78" y="-661.2" font-family="Arial" font-size="14.00" fill="#666666">[BASE TABLE]</text>
<polygon fill="none" stroke="black" points="996.22,-617 996.22,-647.8 1291.15,-647.8 1291.15,-617 996.22,-617"/>
<text text-anchor="start" x="1003.22" y="-629.2" font-family="Arial" font-size="14.00">room_id </text>
<text text-anchor="start" x="1057.69" y="-629.2" font-family="Arial" font-size="14.00" fill="#666666">[text]</text>
<polygon fill="none" stroke="black" points="996.22,-586.2 996.22,-617 1291.15,-617 1291.15,-586.2 996.22,-586.2"/>
<text text-anchor="start" x="1003.22" y="-598.4" font-family="Arial" font-size="14.00">current_song_id </text>
<text text-anchor="start" x="1107.51" y="-598.4" font-family="Arial" font-size="14.00" fill="#666666">[text]</text>
<polygon fill="none" stroke="black" points="996.22,-555.4 996.22,-586.2 1291.15,-586.2 1291.15,-555.4 996.22,-555.4"/>
<text text-anchor="start" x="1003.22" y="-567.6" font-family="Arial" font-size="14.00">is_playing </text>
<text text-anchor="start" x="1069.37" y="-567.6" font-family="Arial" font-size="14.00" fill="#666666">[integer]</text>
<polygon fill="none" stroke="black" points="996.22,-524.6 996.22,-555.4 1291.15,-555.4 1291.15,-524.6 996.22,-524.6"/>
<text text-anchor="start" x="1003.22" y="-536.8" font-family="Arial" font-size="14.00">position_ms </text>
<text text-anchor="start" x="1081.81" y="-536.8" font-family="Arial" font-size="14.00" fill="#666666">[integer]</text>
<polygon fill="none" stroke="black" points="996.22,-493.8 996.22,-524.6 1291.15,-524.6 1291.15,-493.8 996.22,-493.8"/>
<text text-anchor="start" x="1003.22" y="-506" font-family="Arial" font-size="14.00">updated_at </text>
<text text-anchor="start" x="1077.18" y="-506" font-family="Arial" font-size="14.00" fill="#666666">[timestamp with time zone]</text>
</g>
<!-- public.playback_state&#45;&gt;public.rooms -->
<g id="edge3" class="edge">
<title>public.playback_state:room_id&#45;&gt;public.rooms:id</title>
<path fill="none" stroke="black" d="M985.31,-630.53C912.6,-600.24 1044.64,-212.6 954.57,-212.6"/>
<polygon fill="black" stroke="black" points="985.06,-630.48 994.06,-636.76 990.31,-631.47 994.56,-632.28 994.56,-632.28 994.56,-632.28 990.31,-631.47 995.73,-627.92 985.06,-630.48"/>
<text text-anchor="start" x="913.56" y="-616.4" font-family="Arial" font-size="10.00">FOREIGN KEY (room_id) REFERENCES rooms(id) ON DELETE CASCADE</text>
</g>
<!-- public.room_users -->
<g id="node6" class="node">
<title>public.room_users</title>
<polygon fill="#efefef" stroke="none" points="1395.7,-709.4 1395.7,-745 1667.67,-745 1667.67,-709.4 1395.7,-709.4"/>
<polygon fill="none" stroke="black" points="1395.7,-709.4 1395.7,-745 1667.67,-745 1667.67,-709.4 1395.7,-709.4"/>
<text text-anchor="start" x="1402.7" y="-722.8" font-family="Arial Bold" font-size="18.00">public.room_users</text>
<text text-anchor="start" x="1536.18" y="-722.8" font-family="Arial" font-size="14.00">    </text>
<text text-anchor="start" x="1567.3" y="-722.8" font-family="Arial" font-size="14.00" fill="#666666">[BASE TABLE]</text>
<polygon fill="none" stroke="black" points="1395.7,-678.6 1395.7,-709.4 1667.67,-709.4 1667.67,-678.6 1395.7,-678.6"/>
<text text-anchor="start" x="1402.7" y="-690.8" font-family="Arial" font-size="14.00">id </text>
<text text-anchor="start" x="1417.49" y="-690.8" font-family="Arial" font-size="14.00" fill="#666666">[text]</text>
<polygon fill="none" stroke="black" points="1395.7,-647.8 1395.7,-678.6 1667.67,-678.6 1667.67,-647.8 1395.7,-647.8"/>
<text text-anchor="start" x="1402.7" y="-660" font-family="Arial" font-size="14.00">room_id </text>
<text text-anchor="start" x="1457.17" y="-660" font-family="Arial" font-size="14.00" fill="#666666">[text]</text>
<polygon fill="none" stroke="black" points="1395.7,-617 1395.7,-647.8 1667.67,-647.8 1667.67,-617 1395.7,-617"/>
<text text-anchor="start" x="1402.7" y="-629.2" font-family="Arial" font-size="14.00">nickname </text>
<text text-anchor="start" x="1466.51" y="-629.2" font-family="Arial" font-size="14.00" fill="#666666">[text]</text>
<polygon fill="none" stroke="black" points="1395.7,-586.2 1395.7,-617 1667.67,-617 1667.67,-586.2 1395.7,-586.2"/>
<text text-anchor="start" x="1402.7" y="-598.4" font-family="Arial" font-size="14.00">is_admin </text>
<text text-anchor="start" x="1462.62" y="-598.4" font-family="Arial" font-size="14.00" fill="#666666">[integer]</text>
<polygon fill="none" stroke="black" points="1395.7,-555.4 1395.7,-586.2 1667.67,-586.2 1667.67,-555.4 1395.7,-555.4"/>
<text text-anchor="start" x="1402.7" y="-567.6" font-family="Arial" font-size="14.00">is_active_listener </text>
<text text-anchor="start" x="1513.98" y="-567.6" font-family="Arial" font-size="14.00" fill="#666666">[integer]</text>
<polygon fill="none" stroke="black" points="1395.7,-524.6 1395.7,-555.4 1667.67,-555.4 1667.67,-524.6 1395.7,-524.6"/>
<text text-anchor="start" x="1402.7" y="-536.8" font-family="Arial" font-size="14.00">is_cast_receiver </text>
<text text-anchor="start" x="1507.74" y="-536.8" font-family="Arial" font-size="14.00" fill="#666666">[integer]</text>
<polygon fill="none" stroke="black" points="1395.7,-493.8 1395.7,-524.6 1667.67,-524.6 1667.67,-493.8 1395.7,-493.8"/>
<text text-anchor="start" x="1402.7" y="-506" font-family="Arial" font-size="14.00">cast_owner_id </text>
<text text-anchor="start" x="1496.87" y="-506" font-family="Arial" font-size="14.00" fill="#666666">[text]</text>
<polygon fill="none" stroke="black" points="1395.7,-463 1395.7,-493.8 1667.67,-493.8 1667.67,-463 1395.7,-463"/>
<text text-anchor="start" x="1402.7" y="-475.2" font-family="Arial" font-size="14.00">joined_at </text>
<text text-anchor="start" x="1463.42" y="-475.2" font-family="Arial" font-size="14.00" fill="#666666">[timestamp with time zone]</text>
<polygon fill="none" stroke="black" points="1395.7,-432.2 1395.7,-463 1667.67,-463 1667.67,-432.2 1395.7,-432.2"/>
<text text-anchor="start" x="1402.7" y="-444.4" font-family="Arial" font-size="14.00">last_seen_at </text>
<text text-anchor="start" x="1485.98" y="-444.4" font-family="Arial" font-size="14.00" fill="#666666">[timestamp with time zone]</text>
</g>
<!-- public.room_users&#45;&gt;public.rooms -->
<g id="edge4" class="edge">
<title>public.room_users:room_id&#45;&gt;public.rooms:id</title>
<path fill="none" stroke="black" d="M1384.77,-661.21C1329.18,-636.79 1387.93,-395.01 1343.69,-342.8 1284.74,-273.23 1045.75,-212.6 954.57,-212.6"/>
<polygon fill="black" stroke="black" points="1384.57,-661.17 1393.49,-667.55 1389.8,-662.22 1394.05,-663.07 1394.05,-663.07 1394.05,-663.07 1389.8,-662.22 1395.26,-658.72 1384.57,-661.17"/>
<text text-anchor="start" x="1401.7" y="-673.2" font-family="Arial" font-size="10.00">FOREIGN KEY (room_id) REFERENCES rooms(id) ON DELETE CASCADE</text>
</g>
<!-- public.skip_votes -->
<g id="node7" class="node">
<title>public.skip_votes</title>
<polygon fill="#efefef" stroke="none" points="412.2,-1113.8 412.2,-1149.4 677.18,-1149.4 677.18,-1113.8 412.2,-1113.8"/>
<polygon fill="none" stroke="black" points="412.2,-1113.8 412.2,-1149.4 677.18,-1149.4 677.18,-1113.8 412.2,-1113.8"/>
<text text-anchor="start" x="419.2" y="-1127.2" font-family="Arial Bold" font-size="18.00">public.skip_votes</text>
<text text-anchor="start" x="545.69" y="-1127.2" font-family="Arial" font-size="14.00">    </text>
<text text-anchor="start" x="576.8" y="-1127.2" font-family="Arial" font-size="14.00" fill="#666666">[BASE TABLE]</text>
<polygon fill="none" stroke="black" points="412.2,-1083 412.2,-1113.8 677.18,-1113.8 677.18,-1083 412.2,-1083"/>
<text text-anchor="start" x="419.2" y="-1095.2" font-family="Arial" font-size="14.00">room_id </text>
<text text-anchor="start" x="473.66" y="-1095.2" font-family="Arial" font-size="14.00" fill="#666666">[text]</text>
<polygon fill="none" stroke="black" points="412.2,-1052.2 412.2,-1083 677.18,-1083 677.18,-1052.2 412.2,-1052.2"/>
<text text-anchor="start" x="419.2" y="-1064.4" font-family="Arial" font-size="14.00">song_id </text>
<text text-anchor="start" x="472.13" y="-1064.4" font-family="Arial" font-size="14.00" fill="#666666">[text]</text>
<polygon fill="none" stroke="black" points="412.2,-1021.4 412.2,-1052.2 677.18,-1052.2 677.18,-1021.4 412.2,-1021.4"/>
<text text-anchor="start" x="419.2" y="-1033.6" font-family="Arial" font-size="14.00">user_id </text>
<text text-anchor="start" x="469" y="-1033.6" font-family="Arial" font-size="14.00" fill="#666666">[text]</text>
<polygon fill="none" stroke="black" points="412.2,-990.6 412.2,-1021.4 677.18,-1021.4 677.18,-990.6 412.2,-990.6"/>
<text text-anchor="start" x="419.2" y="-1002.8" font-family="Arial" font-size="14.00">created_at </text>
<text text-anchor="start" x="489.24" y="-1002.8" font-family="Arial" font-size="14.00" fill="#666666">[timestamp with time zone]</text>
</g>
<!-- public.skip_votes&#45;&gt;public.rooms -->
<g id="edge5" class="edge">
<title>public.skip_votes:room_id&#45;&gt;public.rooms:id</title>
<path fill="none" stroke="black" d="M400.83,-1097.57C348.87,-1088.42 388.24,-1006 412.2,-947.4 438.66,-882.67 492.96,-898.16 521.69,-834.4 639.95,-571.98 414.96,-212.6 702.8,-212.6"/>
<polygon fill="black" stroke="black" points="400.89,-1097.57 410.5,-1102.86 406.21,-1098 410.53,-1098.35 410.53,-1098.35 410.53,-1098.35 406.21,-1098 411.22,-1093.89 400.89,-1097.57"/>
<text text-anchor="start" x="63.58" y="-1108.4" font-family="Arial" font-size="10.00">FOREIGN KEY (room_id) REFERENCES rooms(id) ON DELETE CASCADE</text>
</g>
<!-- public.skip_votes&#45;&gt;public.songs -->
<g id="edge6" class="edge">
<title>public.skip_votes:song_id&#45;&gt;public.songs:id</title>
<path fill="none" stroke="black" d="M688.56,-1066.97C780.54,-1054.96 622.39,-873.38 611.68,-834.4 600.6,-794.02 568.81,-740.2 610.68,-740.2"/>
<polygon fill="black" stroke="black" points="688.49,-1066.98 678.24,-1063.09 683.17,-1067.3 678.84,-1067.56 678.84,-1067.56 678.84,-1067.56 683.17,-1067.3 678.78,-1072.07 688.49,-1066.98"/>
<text text-anchor="start" x="685.18" y="-1077.6" font-family="Arial" font-size="10.00">FOREIGN KEY (song_id) REFERENCES songs(id) ON DELETE CASCADE</text>
</g>
<!-- public.song_votes -->
<g id="node8" class="node">
<title>public.song_votes</title>
<polygon fill="#efefef" stroke="none" points="787.2,-1113.8 787.2,-1149.4 1056.18,-1149.4 1056.18,-1113.8 787.2,-1113.8"/>
<polygon fill="none" stroke="black" points="787.2,-1113.8 787.2,-1149.4 1056.18,-1149.4 1056.18,-1113.8 787.2,-1113.8"/>
<text text-anchor="start" x="794.2" y="-1127.2" font-family="Arial Bold" font-size="18.00">public.song_votes</text>
<text text-anchor="start" x="924.69" y="-1127.2" font-family="Arial" font-size="14.00">    </text>
<text text-anchor="start" x="955.8" y="-1127.2" font-family="Arial" font-size="14.00" fill="#666666">[BASE TABLE]</text>
<polygon fill="none" stroke="black" points="787.2,-1083 787.2,-1113.8 1056.18,-1113.8 1056.18,-1083 787.2,-1083"/>
<text text-anchor="start" x="794.2" y="-1095.2" font-family="Arial" font-size="14.00">room_id </text>
<text text-anchor="start" x="848.66" y="-1095.2" font-family="Arial" font-size="14.00" fill="#666666">[text]</text>
<polygon fill="none" stroke="black" points="787.2,-1052.2 787.2,-1083 1056.18,-1083 1056.18,-1052.2 787.2,-1052.2"/>
<text text-anchor="start" x="794.2" y="-1064.4" font-family="Arial" font-size="14.00">song_id </text>
<text text-anchor="start" x="847.13" y="-1064.4" font-family="Arial" font-size="14.00" fill="#666666">[text]</text>
<polygon fill="none" stroke="black" points="787.2,-1021.4 787.2,-1052.2 1056.18,-1052.2 1056.18,-1021.4 787.2,-1021.4"/>
<text text-anchor="start" x="794.2" y="-1033.6" font-family="Arial" font-size="14.00">user_id </text>
<text text-anchor="start" x="844" y="-1033.6" font-family="Arial" font-size="14.00" fill="#666666">[text]</text>
<polygon fill="none" stroke="black" points="787.2,-990.6 787.2,-1021.4 1056.18,-1021.4 1056.18,-990.6 787.2,-990.6"/>
<text text-anchor="start" x="794.2" y="-1002.8" font-family="Arial" font-size="14.00">created_at </text>
<text text-anchor="start" x="864.24" y="-1002.8" font-family="Arial" font-size="14.00" fill="#666666">[timestamp with time zone]</text>
</g>
<!-- public.song_votes&#45;&gt;public.rooms -->
<g id="edge7" class="edge">
<title>public.song_votes:room_id&#45;&gt;public.rooms:id</title>
<path fill="none" stroke="black" d="M1067.55,-1097.56C1119.55,-1088.4 1080.53,-1005.84 1056.18,-947.4 1028.92,-881.99 970.73,-899.9 943.69,-834.4 901.99,-733.42 929.09,-451.07 943.69,-342.8 945.9,-326.36 951.27,-323.23 953.57,-306.8 959.39,-265.34 996.44,-212.6 954.57,-212.6"/>
<polygon fill="black" stroke="black" points="1067.48,-1097.57 1057.15,-1093.89 1062.16,-1098 1057.84,-1098.35 1057.84,-1098.35 1057.84,-1098.35 1062.16,-1098 1057.87,-1102.86 1067.48,-1097.57"/>
<text text-anchor="start" x="709.56" y="-1108.4" font-family="Arial" font-size="10.00">FOREIGN KEY (room_id) REFERENCES rooms(id) ON DELETE CASCADE</text>
</g>
<!-- public.song_votes&#45;&gt;public.songs -->
<g id="edge8" class="edge">
<title>public.song_votes:song_id&#45;&gt;public.songs:id</title>
<path fill="none" stroke="black" d="M775.96,-1067.01C682.12,-1055.41 842.48,-874.71 853.69,-834.4 864.91,-794.06 896.56,-740.2 854.69,-740.2"/>
<polygon fill="black" stroke="black" points="775.88,-1067.01 785.61,-1072.07 781.2,-1067.31 785.53,-1067.56 785.53,-1067.56 785.53,-1067.56 781.2,-1067.31 786.12,-1063.09 775.88,-1067.01"/>
<text text-anchor="start" x="528.88" y="-1051.6" font-family="Arial" font-size="10.00">FOREIGN KEY (song_id) REFERENCES songs(id) ON DELETE CASCADE</text>
</g>
<!-- public.auth_tokens -->
<g id="node9" class="node">
<title>public.auth_tokens</title>
<polygon fill="#efefef" stroke="none" points="1160.2,-1160 1160.2,-1195.6 1435.17,-1195.6 1435.17,-1160 1160.2,-1160"/>
<polygon fill="none" stroke="black" points="1160.2,-1160 1160.2,-1195.6 1435.17,-1195.6 1435.17,-1160 1160.2,-1160"/>
<text text-anchor="start" x="1167.2" y="-1173.4" font-family="Arial Bold" font-size="18.00">public.auth_tokens</text>
<text text-anchor="start" x="1303.68" y="-1173.4" font-family="Arial" font-size="14.00">    </text>
<text text-anchor="start" x="1334.8" y="-1173.4" font-family="Arial" font-size="14.00" fill="#666666">[BASE TABLE]</text>
<polygon fill="none" stroke="black" points="1160.2,-1129.2 1160.2,-1160 1435.17,-1160 1435.17,-1129.2 1160.2,-1129.2"/>
<text text-anchor="start" x="1167.2" y="-1141.4" font-family="Arial" font-size="14.00">user_id </text>
<text text-anchor="start" x="1217.01" y="-1141.4" font-family="Arial" font-size="14.00" fill="#666666">[text]</text>
<polygon fill="none" stroke="black" points="1160.2,-1098.4 1160.2,-1129.2 1435.17,-1129.2 1435.17,-1098.4 1160.2,-1098.4"/>
<text text-anchor="start" x="1167.2" y="-1110.6" font-family="Arial" font-size="14.00">provider </text>
<text text-anchor="start" x="1221.67" y="-1110.6" font-family="Arial" font-size="14.00" fill="#666666">[text]</text>
<polygon fill="none" stroke="black" points="1160.2,-1067.6 1160.2,-1098.4 1435.17,-1098.4 1435.17,-1067.6 1160.2,-1067.6"/>
<text text-anchor="start" x="1167.2" y="-1079.8" font-family="Arial" font-size="14.00">code </text>
<text text-anchor="start" x="1201.45" y="-1079.8" font-family="Arial" font-size="14.00" fill="#666666">[text]</text>
<polygon fill="none" stroke="black" points="1160.2,-1036.8 1160.2,-1067.6 1435.17,-1067.6 1435.17,-1036.8 1160.2,-1036.8"/>
<text text-anchor="start" x="1167.2" y="-1049" font-family="Arial" font-size="14.00">state </text>
<text text-anchor="start" x="1201.44" y="-1049" font-family="Arial" font-size="14.00" fill="#666666">[text]</text>
<polygon fill="none" stroke="black" points="1160.2,-1006 1160.2,-1036.8 1435.17,-1036.8 1435.17,-1006 1160.2,-1006"/>
<text text-anchor="start" x="1167.2" y="-1018.2" font-family="Arial" font-size="14.00">expires_at </text>
<text text-anchor="start" x="1235.69" y="-1018.2" font-family="Arial" font-size="14.00" fill="#666666">[timestamp with time zone]</text>
<polygon fill="none" stroke="black" points="1160.2,-975.2 1160.2,-1006 1435.17,-1006 1435.17,-975.2 1160.2,-975.2"/>
<text text-anchor="start" x="1167.2" y="-987.4" font-family="Arial" font-size="14.00">created_at </text>
<text text-anchor="start" x="1237.25" y="-987.4" font-family="Arial" font-size="14.00" fill="#666666">[timestamp with time zone]</text>
<polygon fill="none" stroke="black" points="1160.2,-944.4 1160.2,-975.2 1435.17,-975.2 1435.17,-944.4 1160.2,-944.4"/>
<text text-anchor="start" x="1167.2" y="-956.6" font-family="Arial" font-size="14.00">updated_at </text>
<text text-anchor="start" x="1241.16" y="-956.6" font-family="Arial" font-size="14.00" fill="#666666">[timestamp with time zone]</text>
</g>
<!-- public.access_tokens -->
<g id="node10" class="node">
<title>public.access_tokens</title>
<polygon fill="#efefef" stroke="none" points="1539.9,-1190.8 1539.9,-1226.4 1839.47,-1226.4 1839.47,-1190.8 1539.9,-1190.8"/>
<polygon fill="none" stroke="black" points="1539.9,-1190.8 1539.9,-1226.4 1839.47,-1226.4 1839.47,-1190.8 1539.9,-1190.8"/>
<text text-anchor="start" x="1551.72" y="-1204.2" font-family="Arial Bold" font-size="18.00">public.access_tokens</text>
<text text-anchor="start" x="1703.17" y="-1204.2" font-family="Arial" font-size="14.00">    </text>
<text text-anchor="start" x="1734.29" y="-1204.2" font-family="Arial" font-size="14.00" fill="#666666">[BASE TABLE]</text>
<polygon fill="none" stroke="black" points="1539.9,-1160 1539.9,-1190.8 1839.47,-1190.8 1839.47,-1160 1539.9,-1160"/>
<text text-anchor="start" x="1546.9" y="-1172.2" font-family="Arial" font-size="14.00">user_id </text>
<text text-anchor="start" x="1596.71" y="-1172.2" font-family="Arial" font-size="14.00" fill="#666666">[text]</text>
<polygon fill="none" stroke="black" points="1539.9,-1129.2 1539.9,-1160 1839.47,-1160 1839.47,-1129.2 1539.9,-1129.2"/>
<text text-anchor="start" x="1546.9" y="-1141.4" font-family="Arial" font-size="14.00">provider </text>
<text text-anchor="start" x="1601.37" y="-1141.4" font-family="Arial" font-size="14.00" fill="#666666">[text]</text>
<polygon fill="none" stroke="black" points="1539.9,-1098.4 1539.9,-1129.2 1839.47,-1129.2 1839.47,-1098.4 1539.9,-1098.4"/>
<text text-anchor="start" x="1546.9" y="-1110.6" font-family="Arial" font-size="14.00">access_token </text>
<text text-anchor="start" x="1636.4" y="-1110.6" font-family="Arial" font-size="14.00" fill="#666666">[text]</text>
<polygon fill="none" stroke="black" points="1539.9,-1067.6 1539.9,-1098.4 1839.47,-1098.4 1839.47,-1067.6 1539.9,-1067.6"/>
<text text-anchor="start" x="1546.9" y="-1079.8" font-family="Arial" font-size="14.00">refresh_token </text>
<text text-anchor="start" x="1636.4" y="-1079.8" font-family="Arial" font-size="14.00" fill="#666666">[text]</text>
<polygon fill="none" stroke="black" points="1539.9,-1036.8 1539.9,-1067.6 1839.47,-1067.6 1839.47,-1036.8 1539.9,-1036.8"/>
<text text-anchor="start" x="1546.9" y="-1049" font-family="Arial" font-size="14.00">expires_at </text>
<text text-anchor="start" x="1615.39" y="-1049" font-family="Arial" font-size="14.00" fill="#666666">[timestamp with time zone]</text>
<polygon fill="none" stroke="black" points="1539.9,-1006 1539.9,-1036.8 1839.47,-1036.8 1839.47,-1006 1539.9,-1006"/>
<text text-anchor="start" x="1546.9" y="-1018.2" font-family="Arial" font-size="14.00">refresh_expires_at </text>
<text text-anchor="start" x="1666.74" y="-1018.2" font-family="Arial" font-size="14.00" fill="#666666">[timestamp with time zone]</text>
<polygon fill="none" stroke="black" points="1539.9,-975.2 1539.9,-1006 1839.47,-1006 1839.47,-975.2 1539.9,-975.2"/>
<text text-anchor="start" x="1546.9" y="-987.4" font-family="Arial" font-size="14.00">created_at </text>
<text text-anchor="start" x="1616.95" y="-987.4" font-family="Arial" font-size="14.00" fill="#666666">[timestamp with time zone]</text>
<polygon fill="none" stroke="black" points="1539.9,-944.4 1539.9,-975.2 1839.47,-975.2 1839.47,-944.4 1539.9,-944.4"/>
<text text-anchor="start" x="1546.9" y="-956.6" font-family="Arial" font-size="14.00">updated_at </text>
<text text-anchor="start" x="1620.86" y="-956.6" font-family="Arial" font-size="14.00" fill="#666666">[timestamp with time zone]</text>
<polygon fill="none" stroke="black" points="1539.9,-913.6 1539.9,-944.4 1839.47,-944.4 1839.47,-913.6 1539.9,-913.6"/>
<text text-anchor="start" x="1546.9" y="-925.8" font-family="Arial" font-size="14.00">last_checked </text>
<text text-anchor="start" x="1632.51" y="-925.8" font-family="Arial" font-size="14.00" fill="#666666">[timestamp with time zone]</text>
</g>
<!-- public.pending_oauth_state -->
<g id="node11" class="node">
<title>public.pending_oauth_state</title>
<polygon fill="#efefef" stroke="none" points="1944.21,-1113.8 1944.21,-1149.4 2281.16,-1149.4 2281.16,-1113.8 1944.21,-1113.8"/>
<polygon fill="none" stroke="black" points="1944.21,-1113.8 1944.21,-1149.4 2281.16,-1149.4 2281.16,-1113.8 1944.21,-1113.8"/>
<text text-anchor="start" x="1951.21" y="-1127.2" font-family="Arial Bold" font-size="18.00">public.pending_oauth_state</text>
<text text-anchor="start" x="2149.67" y="-1127.2" font-family="Arial" font-size="14.00">    </text>
<text text-anchor="start" x="2180.79" y="-1127.2" font-family="Arial" font-size="14.00" fill="#666666">[BASE TABLE]</text>
<polygon fill="none" stroke="black" points="1944.21,-1083 1944.21,-1113.8 2281.16,-1113.8 2281.16,-1083 1944.21,-1083"/>
<text text-anchor="start" x="1951.21" y="-1095.2" font-family="Arial" font-size="14.00">user_id </text>
<text text-anchor="start" x="2001.02" y="-1095.2" font-family="Arial" font-size="14.00" fill="#666666">[text]</text>
<polygon fill="none" stroke="black" points="1944.21,-1052.2 1944.21,-1083 2281.16,-1083 2281.16,-1052.2 1944.21,-1052.2"/>
<text text-anchor="start" x="1951.21" y="-1064.4" font-family="Arial" font-size="14.00">state </text>
<text text-anchor="start" x="1985.45" y="-1064.4" font-family="Arial" font-size="14.00" fill="#666666">[text]</text>
<polygon fill="none" stroke="black" points="1944.21,-1021.4 1944.21,-1052.2 2281.16,-1052.2 2281.16,-1021.4 1944.21,-1021.4"/>
<text text-anchor="start" x="1951.21" y="-1033.6" font-family="Arial" font-size="14.00">expires_at </text>
<text text-anchor="start" x="2019.7" y="-1033.6" font-family="Arial" font-size="14.00" fill="#666666">[timestamp with time zone]</text>
<polygon fill="none" stroke="black" points="1944.21,-990.6 1944.21,-1021.4 2281.16,-1021.4 2281.16,-990.6 1944.21,-990.6"/>
<text text-anchor="start" x="1951.21" y="-1002.8" font-family="Arial" font-size="14.00">code_verifier </text>
<text text-anchor="start" x="2035.25" y="-1002.8" font-family="Arial" font-size="14.00" fill="#666666">[text]</text>
</g>
</g>
</svg>
